<svg id="svg" version="1.1" xmlns="http://www.w3.org/2000/svg" xmlns:xlink="http://www.w3.org/1999/xlink" width="400" height="225" viewBox="0, 0, 400,225"><g id="svgg"><path id="path0" d="M111.649 74.508 C 111.649 74.631,111.750 74.733,111.874 74.733 C 112.377 74.733,112.999 75.658,112.999 76.406 C 112.999 76.978,113.115 77.215,113.445 77.320 C 113.727 77.409,113.982 77.803,114.142 78.399 C 114.281 78.914,114.587 79.471,114.823 79.636 C 115.058 79.801,115.250 80.067,115.250 80.227 C 115.250 80.387,115.554 80.836,115.926 81.225 C 116.323 81.641,116.601 82.174,116.601 82.519 C 116.601 82.881,116.860 83.348,117.276 83.737 C 117.735 84.165,117.952 84.583,117.952 85.039 C 117.952 85.507,118.122 85.823,118.514 86.079 C 118.824 86.282,119.077 86.583,119.077 86.748 C 119.077 86.913,119.330 87.321,119.640 87.655 C 119.949 87.989,120.203 88.503,120.203 88.798 C 120.203 89.136,120.451 89.511,120.878 89.814 C 121.429 90.207,121.553 90.455,121.553 91.168 C 121.553 91.893,121.656 92.090,122.159 92.334 C 122.541 92.519,122.835 92.899,122.953 93.360 C 123.057 93.762,123.224 94.091,123.324 94.091 C 124.066 94.091,124.176 95.969,123.467 96.527 C 123.132 96.790,122.904 97.200,122.904 97.538 C 122.904 98.401,122.671 98.832,122.085 99.055 C 121.775 99.173,121.553 99.442,121.553 99.700 C 121.553 99.944,121.362 100.277,121.128 100.441 C 120.894 100.605,120.571 101.178,120.410 101.714 C 120.218 102.356,119.946 102.754,119.611 102.881 C 119.215 103.031,119.089 103.281,119.034 104.018 C 118.985 104.682,118.831 105.036,118.514 105.211 C 117.917 105.540,117.734 105.813,117.730 106.380 C 117.728 106.640,117.533 107.027,117.297 107.241 C 117.061 107.455,116.746 107.923,116.597 108.281 C 116.449 108.640,116.136 108.994,115.902 109.068 C 115.590 109.167,115.476 109.416,115.476 109.998 C 115.476 110.580,115.305 110.953,114.838 111.390 C 114.487 111.718,114.127 112.282,114.037 112.643 C 113.856 113.363,113.231 114.273,112.250 115.239 C 111.783 115.699,111.633 116.040,111.687 116.515 L 111.761 117.164 116.248 117.164 L 120.735 117.164 121.238 116.263 C 121.514 115.768,121.946 114.931,122.198 114.404 C 122.450 113.876,122.813 113.384,123.005 113.310 C 123.213 113.231,123.354 112.904,123.354 112.503 C 123.354 112.045,123.570 111.628,124.029 111.199 C 124.492 110.766,124.705 110.353,124.705 109.886 C 124.705 109.243,125.186 108.497,125.601 108.497 C 125.705 108.497,125.861 108.082,125.946 107.575 C 126.037 107.040,126.320 106.464,126.621 106.202 C 126.906 105.954,127.200 105.424,127.275 105.024 C 127.351 104.624,127.664 104.077,127.972 103.810 C 128.279 103.542,128.531 103.174,128.531 102.992 C 128.531 102.477,129.344 102.132,129.882 102.420 C 130.129 102.552,130.332 102.807,130.332 102.985 C 130.332 103.164,130.585 103.476,130.895 103.679 C 131.280 103.931,131.458 104.252,131.458 104.699 C 131.458 105.115,131.701 105.605,132.133 106.057 C 132.605 106.551,132.808 106.988,132.808 107.510 C 132.808 108.055,132.945 108.328,133.315 108.523 C 133.994 108.881,134.151 109.155,134.155 109.991 C 134.158 110.483,134.321 110.803,134.694 111.047 C 135.015 111.258,135.289 111.718,135.379 112.199 C 135.462 112.639,135.778 113.248,136.082 113.552 C 136.386 113.856,136.635 114.217,136.635 114.355 C 136.635 114.493,136.888 114.937,137.198 115.343 C 137.507 115.749,137.760 116.236,137.760 116.426 C 137.760 117.201,138.296 117.287,142.741 117.225 L 147.102 117.164 147.171 116.454 C 147.221 115.934,147.111 115.654,146.761 115.408 C 146.199 115.015,144.738 112.817,144.738 112.366 C 144.738 112.195,144.434 111.771,144.063 111.424 C 143.572 110.965,143.388 110.587,143.388 110.036 C 143.388 109.476,143.260 109.222,142.896 109.057 C 142.625 108.935,142.309 108.544,142.192 108.188 C 142.076 107.832,141.794 107.353,141.565 107.124 C 141.336 106.895,141.085 106.458,141.008 106.152 C 140.932 105.845,140.625 105.435,140.327 105.240 C 139.908 104.965,139.786 104.687,139.786 104.003 C 139.786 103.265,139.686 103.071,139.177 102.826 C 138.736 102.614,138.516 102.288,138.384 101.650 C 138.284 101.165,138.001 100.627,137.756 100.456 C 137.511 100.284,137.310 100.004,137.310 99.835 C 137.310 99.665,137.048 99.320,136.727 99.068 C 136.332 98.757,136.105 98.316,136.022 97.701 C 135.955 97.201,135.812 96.792,135.705 96.792 C 134.654 96.792,134.530 95.296,135.500 94.325 C 135.753 94.073,135.959 93.615,135.959 93.309 C 135.959 92.970,136.170 92.613,136.495 92.400 C 136.847 92.170,137.079 91.745,137.172 91.161 C 137.266 90.574,137.497 90.152,137.853 89.919 C 138.150 89.725,138.460 89.299,138.541 88.973 C 138.623 88.648,138.937 88.088,139.238 87.730 C 139.539 87.372,139.786 86.937,139.786 86.763 C 139.786 86.590,140.039 86.282,140.349 86.079 C 140.764 85.807,140.912 85.513,140.912 84.956 C 140.912 84.377,141.070 84.083,141.587 83.701 C 142.098 83.323,142.262 83.023,142.262 82.465 C 142.262 82.060,142.419 81.598,142.611 81.438 C 143.656 80.568,144.465 79.384,144.635 78.475 C 144.744 77.894,144.962 77.547,145.320 77.384 C 145.712 77.206,145.884 76.891,145.996 76.146 C 146.108 75.395,146.278 75.087,146.680 74.904 C 147.797 74.395,147.079 74.282,142.705 74.282 L 138.195 74.282 137.415 75.063 C 136.902 75.576,136.634 76.058,136.631 76.470 C 136.627 77.226,136.457 77.508,135.791 77.858 C 135.396 78.066,135.284 78.321,135.284 79.012 C 135.284 79.700,135.163 79.979,134.744 80.253 C 134.416 80.469,134.145 80.925,134.052 81.421 C 133.968 81.869,133.667 82.418,133.383 82.642 C 133.099 82.865,132.808 83.342,132.736 83.703 C 132.664 84.063,132.445 84.518,132.248 84.715 C 132.052 84.911,131.742 85.430,131.559 85.867 C 131.376 86.305,131.082 86.663,130.906 86.663 C 130.697 86.663,130.531 87.024,130.430 87.694 C 130.191 89.287,128.538 89.688,128.528 88.155 C 128.523 87.286,128.271 86.706,127.851 86.596 C 127.598 86.530,127.343 86.141,127.197 85.598 C 127.065 85.109,126.754 84.525,126.506 84.300 C 126.258 84.076,126.055 83.763,126.055 83.606 C 126.055 83.449,125.801 83.019,125.491 82.651 C 125.181 82.282,124.865 81.671,124.790 81.292 C 124.714 80.913,124.423 80.452,124.143 80.269 C 123.792 80.039,123.586 79.616,123.480 78.910 C 123.396 78.346,123.239 77.884,123.131 77.884 C 122.714 77.884,122.228 77.145,122.228 76.510 C 122.228 76.049,121.987 75.602,121.448 75.063 L 120.668 74.282 116.158 74.282 C 113.302 74.282,111.649 74.365,111.649 74.508 M186.662 95.723 L 186.719 117.164 194.035 117.164 C 201.324 117.164,201.355 117.162,202.460 116.618 C 203.249 116.230,204.078 116.042,205.330 115.970 C 206.298 115.914,207.091 115.787,207.091 115.688 C 207.091 115.264,207.855 114.800,208.554 114.800 C 209.273 114.800,210.017 114.334,210.017 113.884 C 210.017 113.769,210.121 113.675,210.247 113.675 C 210.374 113.675,210.993 113.320,211.623 112.887 C 212.253 112.454,212.909 112.099,213.081 112.099 C 213.253 112.099,213.393 111.954,213.393 111.778 C 213.393 111.601,213.641 111.262,213.943 111.024 C 214.246 110.786,214.563 110.297,214.648 109.938 C 214.795 109.317,214.989 109.060,216.504 107.481 C 217.030 106.932,217.177 106.546,217.266 105.474 C 217.352 104.430,217.489 104.054,217.907 103.716 L 218.437 103.286 218.437 95.624 C 218.437 88.736,218.400 87.934,218.063 87.688 C 217.569 87.327,217.220 86.374,217.220 85.388 C 217.220 84.825,217.039 84.407,216.601 83.956 C 215.238 82.555,214.744 81.898,214.744 81.484 C 214.744 81.246,214.437 80.718,214.061 80.312 C 212.488 78.608,211.885 78.145,210.890 77.877 C 210.320 77.723,209.925 77.470,209.858 77.214 C 209.748 76.790,209.168 76.542,208.278 76.537 C 207.994 76.535,207.616 76.289,207.408 75.971 C 207.078 75.467,206.887 75.408,205.591 75.408 C 204.347 75.408,204.065 75.329,203.581 74.845 L 203.018 74.282 194.811 74.282 L 186.604 74.282 186.662 95.723 M203.811 81.389 C 204.005 81.584,204.164 81.837,204.164 81.952 C 204.164 82.067,204.525 82.161,204.967 82.161 C 206.135 82.161,209.116 85.152,209.116 86.324 C 209.116 86.876,209.292 87.258,209.736 87.669 L 210.355 88.242 210.429 94.825 C 210.505 101.500,210.363 103.095,209.689 103.095 C 209.499 103.095,209.285 103.535,209.135 104.233 C 209.001 104.859,208.638 105.743,208.328 106.199 C 208.019 106.654,207.766 107.155,207.766 107.312 C 207.766 107.469,207.661 107.597,207.533 107.597 C 207.405 107.597,206.946 107.952,206.513 108.385 C 205.943 108.955,205.527 109.173,205.009 109.173 C 204.498 109.173,204.153 109.350,203.800 109.792 L 203.307 110.411 199.567 110.490 C 196.402 110.558,195.742 110.514,195.269 110.204 L 194.710 109.838 194.710 95.707 C 194.710 85.016,194.776 81.510,194.980 81.306 C 195.429 80.857,203.354 80.932,203.811 81.389 M161.299 85.466 C 159.759 85.545,159.445 85.633,159.003 86.110 C 158.676 86.463,158.244 86.663,157.808 86.663 C 156.793 86.663,152.842 90.582,152.842 91.589 C 152.842 92.078,152.677 92.388,152.279 92.649 C 151.915 92.887,151.716 93.227,151.715 93.611 C 151.713 94.579,151.295 95.796,150.815 96.231 C 150.049 96.923,150.131 105.595,150.909 106.272 C 151.324 106.632,151.490 107.069,151.612 108.116 C 151.734 109.171,151.893 109.585,152.298 109.903 C 152.588 110.131,152.892 110.676,152.975 111.114 C 153.057 111.552,153.364 112.151,153.658 112.445 C 153.952 112.739,154.192 113.078,154.192 113.199 C 154.192 113.320,154.401 113.485,154.656 113.566 C 154.910 113.647,155.206 113.944,155.313 114.225 C 155.455 114.598,155.755 114.777,156.419 114.883 C 156.994 114.975,157.418 115.193,157.569 115.476 C 157.720 115.758,158.145 115.976,158.722 116.069 C 159.258 116.154,159.845 116.440,160.140 116.759 L 160.645 117.303 165.241 117.233 C 169.667 117.166,169.863 117.144,170.545 116.632 C 170.946 116.331,171.703 116.050,172.289 115.984 C 172.945 115.910,173.326 115.757,173.326 115.567 C 173.326 115.401,173.535 115.154,173.790 115.018 C 174.675 114.544,177.378 111.689,177.378 111.227 C 177.378 110.977,177.631 110.498,177.940 110.164 C 178.337 109.736,178.503 109.303,178.503 108.695 C 178.503 108.023,178.628 107.751,179.066 107.464 L 179.629 107.095 179.629 101.351 C 179.629 95.619,179.627 95.605,179.102 95.118 C 178.729 94.773,178.534 94.275,178.432 93.409 C 178.335 92.596,178.141 92.072,177.852 91.845 C 177.614 91.656,177.383 91.300,177.340 91.052 C 177.297 90.805,177.035 90.502,176.757 90.380 C 176.479 90.258,176.252 90.082,176.252 89.989 C 176.252 89.756,174.206 87.788,173.964 87.788 C 173.855 87.788,173.651 87.535,173.510 87.226 C 173.310 86.787,173.086 86.663,172.491 86.663 C 171.975 86.663,171.566 86.488,171.226 86.120 C 170.688 85.540,165.944 85.227,161.299 85.466 M235.361 85.465 C 233.879 85.542,233.471 85.650,232.924 86.110 C 232.563 86.414,232.030 86.663,231.740 86.663 C 230.998 86.663,230.501 86.887,230.501 87.222 C 230.501 87.380,230.200 87.633,229.833 87.785 C 229.466 87.937,229.109 88.238,229.041 88.454 C 228.972 88.669,228.665 88.960,228.358 89.100 C 228.051 89.240,227.800 89.504,227.800 89.687 C 227.800 89.870,227.546 90.393,227.237 90.849 C 226.927 91.305,226.674 91.808,226.674 91.968 C 226.674 92.127,226.404 92.470,226.074 92.730 C 225.551 93.141,225.457 93.414,225.338 94.872 C 225.232 96.167,225.089 96.661,224.700 97.075 C 223.948 97.876,223.926 104.465,224.673 105.259 C 225.012 105.620,225.197 106.217,225.321 107.348 C 225.455 108.567,225.630 109.092,226.084 109.632 C 226.409 110.017,226.674 110.470,226.674 110.638 C 226.674 110.806,226.879 111.008,227.130 111.088 C 227.429 111.183,227.675 111.569,227.847 112.212 C 228.017 112.845,228.286 113.271,228.610 113.419 C 228.886 113.545,229.175 113.848,229.253 114.093 C 229.350 114.399,229.678 114.587,230.300 114.692 C 230.947 114.801,231.275 114.997,231.448 115.376 C 231.630 115.774,231.940 115.945,232.684 116.057 C 233.390 116.163,233.783 116.366,234.041 116.760 L 234.404 117.313 239.293 117.239 C 244.110 117.165,244.188 117.156,244.610 116.635 C 244.909 116.265,245.351 116.071,246.079 115.989 C 246.846 115.902,247.149 115.761,247.230 115.451 C 247.290 115.220,247.594 114.934,247.905 114.816 C 248.216 114.698,248.533 114.403,248.609 114.162 C 248.686 113.921,248.955 113.669,249.208 113.603 C 249.461 113.537,249.719 113.285,249.783 113.044 C 249.846 112.802,250.142 112.493,250.441 112.356 C 250.740 112.220,250.985 111.957,250.985 111.771 C 250.985 111.586,251.225 111.277,251.519 111.084 C 251.891 110.840,252.091 110.447,252.180 109.787 C 252.262 109.176,252.492 108.690,252.828 108.419 C 253.749 107.673,253.888 94.386,252.977 94.148 C 252.492 94.021,252.110 93.257,252.110 92.414 C 252.110 92.106,251.880 91.741,251.548 91.523 C 251.238 91.320,250.985 91.046,250.985 90.912 C 250.985 90.779,250.706 90.380,250.366 90.026 C 250.025 89.671,249.409 89.023,248.995 88.585 C 248.582 88.147,248.099 87.788,247.921 87.788 C 247.744 87.788,247.489 87.547,247.354 87.251 C 247.186 86.882,246.859 86.673,246.313 86.585 C 245.876 86.514,245.304 86.256,245.044 86.013 C 244.535 85.538,239.481 85.252,235.361 85.465 M268.085 85.508 C 266.575 85.620,266.028 85.758,265.523 86.156 C 265.169 86.435,264.748 86.663,264.586 86.663 C 264.424 86.663,264.132 86.891,263.937 87.169 C 263.741 87.448,263.255 87.783,262.855 87.913 C 262.312 88.091,261.998 88.419,261.616 89.208 C 261.335 89.789,260.962 90.264,260.786 90.264 C 260.581 90.264,260.413 90.620,260.318 91.256 C 260.222 91.892,259.975 92.417,259.629 92.718 C 258.882 93.367,258.830 95.664,259.551 96.146 C 259.808 96.318,260.107 96.876,260.226 97.405 C 260.368 98.040,260.707 98.601,261.245 99.094 C 261.689 99.499,262.395 100.160,262.814 100.563 C 263.233 100.965,263.668 101.294,263.782 101.294 C 263.895 101.294,264.041 101.497,264.106 101.745 C 264.183 102.041,264.413 102.195,264.779 102.195 C 265.835 102.195,266.680 102.465,267.308 103.004 C 267.848 103.469,268.170 103.545,269.579 103.545 C 271.018 103.545,271.295 103.615,271.828 104.108 C 272.285 104.532,272.681 104.671,273.430 104.671 C 274.566 104.671,275.295 104.984,275.295 105.472 C 275.295 105.657,275.540 105.900,275.839 106.014 C 276.138 106.128,276.447 106.424,276.526 106.672 C 276.605 106.921,276.867 107.187,277.108 107.263 C 278.113 107.582,278.062 109.180,277.019 110.044 C 276.814 110.214,276.646 110.486,276.646 110.647 C 276.646 111.753,269.788 112.219,268.205 111.222 C 266.932 110.420,266.136 109.502,265.977 108.653 L 265.821 107.822 262.698 107.822 C 260.981 107.822,259.432 107.877,259.258 107.944 C 258.705 108.156,259.013 110.543,259.658 111.037 C 259.946 111.257,260.247 111.738,260.328 112.106 C 260.409 112.473,260.662 112.905,260.891 113.065 C 261.119 113.225,261.426 113.619,261.572 113.939 C 261.766 114.364,262.089 114.574,262.770 114.717 C 263.395 114.848,263.774 115.074,263.918 115.403 C 264.058 115.721,264.413 115.942,264.931 116.034 C 266.216 116.261,266.517 116.388,266.517 116.705 C 266.517 117.555,276.636 117.596,277.420 116.749 C 277.713 116.434,278.301 116.160,278.886 116.066 C 279.424 115.980,280.161 115.660,280.523 115.355 C 280.886 115.050,281.387 114.800,281.637 114.800 C 281.891 114.800,282.139 114.615,282.201 114.378 C 282.262 114.146,282.607 113.738,282.968 113.471 C 283.329 113.204,283.624 112.806,283.624 112.586 C 283.624 112.366,283.877 111.843,284.187 111.424 C 284.721 110.699,284.750 110.509,284.750 107.637 L 284.750 104.612 283.568 103.405 C 282.918 102.741,282.249 102.070,282.082 101.915 C 281.915 101.759,281.495 101.353,281.148 101.013 C 280.730 100.603,280.279 100.394,279.809 100.394 C 279.355 100.394,278.901 100.193,278.539 99.831 C 278.099 99.391,277.746 99.268,276.917 99.267 C 275.517 99.266,274.331 98.920,273.831 98.367 C 273.500 98.001,273.138 97.918,271.873 97.918 C 270.507 97.918,270.259 97.850,269.800 97.355 C 269.513 97.046,269.034 96.792,268.736 96.792 C 267.444 96.792,267.142 96.250,267.227 94.087 C 267.312 91.927,267.689 91.165,268.673 91.165 C 268.953 91.165,269.470 90.925,269.820 90.631 C 270.977 89.660,272.699 89.604,273.737 90.504 C 274.014 90.745,274.628 91.046,275.102 91.173 C 276.119 91.447,276.472 91.988,276.637 93.528 L 276.759 94.654 280.698 94.654 L 284.637 94.654 284.706 93.321 C 284.767 92.135,284.711 91.930,284.199 91.455 C 283.883 91.162,283.624 90.683,283.624 90.392 C 283.624 89.862,281.887 87.788,281.443 87.788 C 281.321 87.788,281.105 87.535,280.964 87.226 C 280.753 86.764,280.548 86.663,279.819 86.663 C 279.151 86.663,278.825 86.530,278.509 86.128 C 278.039 85.531,272.353 85.193,268.085 85.508 M167.734 91.615 C 168.172 92.034,168.678 92.290,169.066 92.290 C 169.882 92.290,170.400 92.829,170.400 93.679 C 170.400 94.146,170.612 94.559,171.075 94.992 C 171.833 95.700,171.884 96.341,171.769 103.770 L 171.719 107.034 171.082 107.630 C 170.731 107.958,170.376 108.442,170.292 108.706 C 170.099 109.315,169.127 110.298,168.718 110.298 C 168.548 110.298,168.077 110.577,167.673 110.917 C 166.652 111.776,163.873 111.847,163.301 111.030 C 163.094 110.735,162.711 110.523,162.385 110.523 C 161.708 110.523,159.595 108.511,159.595 107.866 C 159.595 107.630,159.342 107.164,159.032 106.831 L 158.469 106.223 158.469 101.314 C 158.469 96.504,158.480 96.389,159.010 95.609 C 159.307 95.171,159.625 94.575,159.718 94.283 C 159.905 93.693,161.263 92.363,161.876 92.168 C 162.094 92.099,162.334 91.851,162.408 91.618 C 162.719 90.637,166.708 90.635,167.734 91.615 M242.126 91.671 C 242.616 92.012,243.188 92.290,243.397 92.290 C 243.605 92.290,243.934 92.620,244.128 93.022 C 244.322 93.424,244.678 94.108,244.919 94.541 C 245.168 94.990,245.357 95.759,245.357 96.328 C 245.357 97.053,245.496 97.473,245.864 97.865 C 246.708 98.762,246.764 103.160,245.941 103.923 C 245.428 104.398,245.357 104.642,245.357 105.929 C 245.357 107.174,245.278 107.468,244.830 107.889 C 244.539 108.162,244.227 108.688,244.136 109.059 C 243.897 110.033,243.598 110.298,242.743 110.298 C 242.184 110.298,241.826 110.476,241.383 110.974 C 240.542 111.916,238.216 111.982,237.386 111.086 C 237.078 110.753,236.616 110.523,236.257 110.523 C 235.480 110.523,234.778 110.149,234.778 109.736 C 234.778 109.559,234.550 109.294,234.271 109.147 C 233.576 108.781,233.435 108.516,233.431 107.568 C 233.428 106.997,233.288 106.659,232.965 106.443 C 232.301 105.999,232.087 104.746,232.087 101.294 C 232.087 97.843,232.301 96.590,232.965 96.146 C 233.283 95.934,233.427 95.593,233.427 95.058 C 233.427 94.386,233.662 94.045,235.133 92.588 L 236.840 90.899 239.036 90.976 C 240.999 91.044,241.328 91.118,242.126 91.671 " stroke="none" fill="#cb04fa" fill-rule="evenodd"></path><path id="path1" d="M0.000 112.549 L 0.000 225.098 200.000 225.098 L 400.000 225.098 400.000 112.549 L 400.000 0.000 200.000 0.000 L 0.000 0.000 0.000 112.549 M336.677 72.521 L 337.198 73.010 337.198 105.144 L 337.198 137.278 336.439 138.082 L 335.681 138.886 320.024 138.886 L 304.366 138.886 303.899 138.293 L 303.433 137.700 303.433 105.301 C 303.433 83.398,303.508 72.761,303.666 72.467 C 303.893 72.043,304.312 72.032,320.027 72.032 L 336.156 72.032 336.677 72.521 M121.909 74.602 C 122.651 75.345,122.904 75.772,122.904 76.285 C 122.904 76.771,123.069 77.082,123.467 77.342 C 123.849 77.593,124.029 77.916,124.029 78.352 C 124.029 78.744,124.292 79.293,124.705 79.763 C 125.076 80.186,125.380 80.656,125.380 80.808 C 125.380 80.959,125.633 81.384,125.943 81.752 C 126.252 82.120,126.505 82.598,126.505 82.814 C 126.505 83.031,126.749 83.437,127.047 83.716 C 127.344 83.996,127.653 84.572,127.732 84.995 C 127.818 85.450,128.099 85.911,128.417 86.120 C 128.815 86.380,128.975 86.717,129.026 87.395 C 129.114 88.583,129.657 88.830,129.657 87.682 C 129.657 87.071,129.821 86.708,130.302 86.256 C 130.657 85.923,131.019 85.351,131.106 84.986 C 131.193 84.621,131.510 84.094,131.811 83.815 C 132.112 83.536,132.358 83.156,132.358 82.970 C 132.358 82.783,132.611 82.258,132.921 81.802 C 133.230 81.346,133.483 80.837,133.483 80.672 C 133.483 80.506,133.726 80.212,134.022 80.018 C 134.402 79.769,134.605 79.367,134.712 78.658 C 134.819 77.942,135.021 77.547,135.411 77.291 C 135.812 77.029,135.959 76.729,135.959 76.177 C 135.959 75.599,136.118 75.304,136.635 74.922 C 137.006 74.648,137.310 74.301,137.310 74.152 C 137.310 73.387,147.258 73.297,147.665 74.057 C 147.947 74.585,147.611 75.408,147.114 75.408 C 146.926 75.408,146.742 75.773,146.648 76.330 C 146.555 76.879,146.274 77.442,145.953 77.721 C 145.615 78.015,145.414 78.435,145.414 78.845 C 145.414 79.291,145.198 79.689,144.738 80.093 C 144.367 80.419,144.063 80.797,144.063 80.934 C 144.063 81.070,143.819 81.411,143.522 81.691 C 143.224 81.970,142.915 82.546,142.836 82.970 C 142.750 83.430,142.469 83.886,142.139 84.102 C 141.737 84.366,141.587 84.666,141.587 85.210 C 141.587 85.783,141.430 86.069,140.912 86.438 C 140.464 86.756,140.236 87.112,140.236 87.491 C 140.236 88.023,139.738 88.789,138.492 90.173 C 138.213 90.482,137.984 90.908,137.982 91.119 C 137.976 91.916,137.705 92.468,137.210 92.694 C 136.853 92.856,136.656 93.192,136.558 93.803 C 136.476 94.317,136.180 94.903,135.844 95.220 L 135.269 95.759 135.832 96.054 C 136.186 96.239,136.480 96.667,136.626 97.210 C 136.754 97.684,137.061 98.255,137.309 98.480 C 137.557 98.704,137.760 99.022,137.760 99.186 C 137.760 99.349,138.009 99.646,138.312 99.845 C 138.706 100.103,138.907 100.495,139.015 101.217 C 139.129 101.977,139.291 102.274,139.671 102.419 C 140.174 102.610,140.453 103.222,140.458 104.149 C 140.460 104.432,140.643 104.698,140.887 104.776 C 141.122 104.850,141.435 105.204,141.583 105.562 C 141.732 105.921,142.047 106.389,142.283 106.603 C 142.519 106.817,142.712 107.276,142.712 107.624 C 142.712 108.051,142.877 108.343,143.219 108.523 C 143.894 108.879,144.055 109.155,144.060 109.967 C 144.062 110.414,144.276 110.851,144.682 111.239 C 145.668 112.179,146.307 113.133,146.458 113.890 C 146.535 114.275,146.813 114.704,147.075 114.842 C 147.975 115.315,148.190 116.523,147.539 117.451 C 146.859 118.422,137.310 118.145,137.310 117.154 C 137.310 116.972,137.068 116.613,136.773 116.356 C 136.467 116.090,136.178 115.527,136.101 115.045 C 136.004 114.434,135.809 114.129,135.400 113.942 C 134.939 113.732,134.834 113.525,134.834 112.821 C 134.834 112.124,134.705 111.863,134.159 111.459 C 133.636 111.073,133.483 110.785,133.483 110.184 C 133.483 109.604,133.341 109.315,132.919 109.038 C 132.542 108.791,132.309 108.381,132.216 107.803 C 132.129 107.258,131.890 106.814,131.570 106.605 C 131.273 106.410,130.999 105.935,130.910 105.459 C 130.826 105.012,130.585 104.472,130.376 104.259 C 130.166 104.047,129.826 103.622,129.621 103.315 C 129.265 102.782,129.242 102.777,129.102 103.208 C 129.022 103.455,128.813 103.911,128.637 104.221 C 128.461 104.530,128.122 105.199,127.884 105.708 C 127.645 106.216,127.302 106.688,127.122 106.757 C 126.942 106.827,126.728 107.300,126.646 107.809 C 126.536 108.498,126.354 108.801,125.939 108.990 C 125.486 109.197,125.380 109.408,125.380 110.103 C 125.380 110.794,125.249 111.057,124.705 111.459 C 124.196 111.835,124.029 112.139,124.029 112.688 C 124.029 113.372,123.559 114.125,123.133 114.125 C 123.028 114.125,122.875 114.531,122.791 115.027 C 122.707 115.522,122.461 116.054,122.244 116.208 C 122.027 116.362,121.717 116.742,121.555 117.051 C 121.094 117.933,121.024 117.945,116.220 117.948 C 111.776 117.952,111.667 117.940,111.324 117.451 C 110.664 116.509,110.888 115.316,111.818 114.826 C 112.096 114.679,112.324 114.368,112.324 114.134 C 112.324 113.901,112.564 113.423,112.856 113.073 C 113.149 112.723,113.460 112.206,113.548 111.924 C 113.637 111.642,113.954 111.251,114.255 111.054 C 114.650 110.795,114.800 110.492,114.800 109.951 C 114.800 109.247,115.268 108.497,115.706 108.497 C 115.816 108.497,115.972 108.140,116.054 107.704 C 116.136 107.268,116.370 106.787,116.574 106.635 C 116.779 106.483,117.078 106.060,117.240 105.693 C 117.402 105.327,117.720 104.897,117.948 104.738 C 118.176 104.579,118.432 104.035,118.517 103.531 C 118.608 102.989,118.824 102.558,119.043 102.477 C 119.562 102.286,119.745 101.960,119.749 101.218 C 119.751 100.792,119.978 100.381,120.428 99.986 C 120.799 99.660,121.103 99.270,121.103 99.119 C 121.103 98.967,121.296 98.709,121.531 98.544 C 121.766 98.379,122.073 97.818,122.214 97.297 C 122.354 96.776,122.668 96.243,122.911 96.113 C 123.372 95.867,123.526 95.217,123.124 95.217 C 122.902 95.217,122.794 95.010,122.231 93.494 C 122.085 93.103,121.772 92.733,121.535 92.671 C 121.199 92.583,121.103 92.355,121.103 91.651 C 121.103 90.902,120.987 90.662,120.428 90.264 C 120.056 90.000,119.752 89.654,119.752 89.496 C 119.752 89.338,119.499 88.915,119.190 88.555 C 118.881 88.195,118.627 87.680,118.627 87.410 C 118.627 87.121,118.348 86.720,117.952 86.438 C 117.456 86.085,117.276 85.776,117.276 85.275 C 117.276 84.807,117.064 84.394,116.601 83.962 C 116.230 83.615,115.926 83.109,115.926 82.838 C 115.926 82.324,115.331 81.415,114.322 80.385 C 113.998 80.054,113.660 79.432,113.573 79.002 C 113.485 78.573,113.161 78.009,112.852 77.750 C 112.483 77.440,112.248 76.959,112.166 76.349 C 112.083 75.729,111.908 75.378,111.641 75.293 C 111.110 75.124,110.920 74.577,111.207 74.041 C 111.425 73.634,111.729 73.607,116.177 73.607 L 120.913 73.607 121.909 74.602 M204.006 74.141 C 204.409 74.574,204.786 74.692,206.014 74.770 C 207.177 74.844,207.648 74.980,208.055 75.362 C 208.345 75.635,208.698 75.858,208.839 75.858 C 209.367 75.858,210.238 76.391,210.365 76.793 C 210.455 77.076,210.714 77.209,211.172 77.209 C 212.018 77.209,212.718 77.572,212.718 78.010 C 212.718 78.195,212.965 78.439,213.267 78.554 C 213.569 78.669,213.940 78.996,214.091 79.280 C 214.242 79.565,214.553 79.931,214.783 80.094 C 215.013 80.257,215.357 80.713,215.547 81.107 C 216.277 82.617,216.736 83.307,217.305 83.755 C 217.761 84.114,217.895 84.419,217.895 85.094 C 217.895 85.639,218.094 86.260,218.422 86.744 C 219.619 88.508,219.620 102.871,218.423 104.493 C 218.063 104.981,217.895 105.515,217.895 106.171 C 217.895 106.979,217.787 107.213,217.220 107.633 C 216.849 107.907,216.545 108.247,216.545 108.388 C 216.545 108.529,216.292 108.882,215.982 109.173 C 215.672 109.464,215.419 109.891,215.419 110.123 C 215.419 110.354,215.191 110.772,214.912 111.051 C 214.633 111.330,214.226 111.832,214.007 112.166 C 213.787 112.501,213.497 112.774,213.362 112.774 C 213.226 112.774,212.769 113.078,212.346 113.450 C 211.923 113.821,211.343 114.125,211.058 114.125 C 210.723 114.125,210.448 114.324,210.283 114.688 C 210.072 115.150,209.867 115.250,209.137 115.250 C 208.405 115.250,208.161 115.370,207.766 115.926 C 207.311 116.565,207.201 116.601,205.725 116.601 C 204.420 116.601,204.084 116.682,203.672 117.093 C 202.639 118.126,186.980 118.449,186.282 117.451 C 185.852 116.837,185.738 74.839,186.164 74.043 C 186.388 73.624,186.725 73.607,194.954 73.607 L 203.511 73.607 204.006 74.141 M195.496 81.748 C 195.433 81.913,195.408 88.278,195.440 95.892 L 195.498 109.736 198.199 109.804 C 201.447 109.887,202.694 109.731,203.212 109.180 C 203.426 108.953,204.031 108.652,204.556 108.511 C 205.081 108.371,205.755 108.032,206.054 107.758 C 206.353 107.484,206.759 107.129,206.957 106.969 C 207.154 106.810,207.316 106.432,207.316 106.130 C 207.316 105.801,207.530 105.441,207.850 105.232 C 208.217 104.991,208.422 104.595,208.507 103.963 C 208.581 103.408,208.860 102.805,209.211 102.439 L 209.792 101.832 209.792 95.563 L 209.792 89.294 209.199 88.516 C 208.849 88.058,208.560 87.335,208.494 86.754 C 208.334 85.332,205.962 82.836,204.770 82.836 C 204.164 82.836,203.870 82.690,203.526 82.217 L 203.076 81.598 199.343 81.523 C 196.384 81.463,195.588 81.509,195.496 81.748 M171.646 85.426 C 171.928 85.771,172.337 85.988,172.708 85.988 C 173.318 85.988,176.702 89.027,176.702 89.575 C 176.702 89.706,176.852 89.814,177.035 89.814 C 177.218 89.814,177.545 90.093,177.762 90.433 C 177.980 90.774,178.337 91.185,178.555 91.346 C 178.776 91.509,178.953 91.930,178.953 92.288 C 178.953 93.122,179.258 93.913,179.779 94.434 C 180.156 94.811,180.197 95.387,180.258 101.111 L 180.324 107.375 179.780 107.880 C 179.462 108.175,179.171 108.774,179.079 109.320 C 178.992 109.834,178.675 110.588,178.374 110.995 C 178.074 111.403,177.828 111.826,177.828 111.935 C 177.828 112.578,173.260 116.601,172.530 116.601 C 171.988 116.601,171.603 116.780,171.195 117.220 L 170.621 117.839 165.351 117.839 C 160.263 117.839,160.064 117.822,159.557 117.353 C 159.268 117.085,158.583 116.747,158.035 116.601 C 157.486 116.456,156.726 116.107,156.346 115.827 C 155.966 115.546,155.478 115.255,155.262 115.178 C 155.045 115.102,154.868 114.882,154.868 114.689 C 154.868 114.497,154.605 114.239,154.283 114.117 C 153.962 113.994,153.647 113.698,153.584 113.457 C 153.522 113.217,153.228 112.862,152.933 112.668 C 152.579 112.436,152.347 112.014,152.254 111.428 C 152.163 110.862,151.928 110.419,151.606 110.208 C 151.225 109.958,151.074 109.596,150.991 108.730 C 150.915 107.935,150.715 107.406,150.342 107.009 C 149.805 106.437,149.803 106.412,149.803 101.206 L 149.803 95.978 150.422 95.242 C 150.866 94.715,151.041 94.258,151.041 93.629 C 151.041 92.941,151.163 92.671,151.604 92.382 C 152.018 92.111,152.167 91.815,152.167 91.260 C 152.167 90.846,152.326 90.377,152.520 90.217 C 152.715 90.057,153.059 89.739,153.286 89.510 C 153.512 89.281,153.798 88.992,153.921 88.867 C 154.044 88.743,154.600 88.204,155.156 87.671 C 155.713 87.138,156.208 86.581,156.257 86.435 C 156.306 86.288,156.813 86.116,157.383 86.051 C 158.190 85.961,158.475 85.817,158.661 85.408 C 159.121 84.399,170.821 84.415,171.646 85.426 M245.608 85.299 C 245.932 85.537,246.565 85.885,247.015 86.073 C 247.465 86.261,247.833 86.526,247.833 86.662 C 247.833 86.799,248.251 87.097,248.761 87.325 C 249.675 87.735,251.227 89.480,251.533 90.443 C 251.612 90.694,251.927 91.063,252.232 91.262 C 252.660 91.543,252.786 91.820,252.786 92.485 C 252.786 93.180,252.892 93.392,253.342 93.597 C 254.634 94.186,254.677 108.058,253.390 108.995 C 252.956 109.311,252.785 109.637,252.782 110.148 C 252.778 110.859,251.096 112.999,250.541 112.999 C 250.414 112.999,250.310 113.113,250.310 113.251 C 250.310 113.559,248.596 115.250,248.283 115.250 C 248.160 115.250,248.059 115.352,248.059 115.476 C 248.059 115.981,247.133 116.601,246.379 116.601 C 245.819 116.601,245.440 116.775,245.027 117.220 L 244.454 117.839 239.549 117.907 C 234.622 117.976,233.427 117.837,233.427 117.196 C 233.427 116.878,232.779 116.610,231.998 116.604 C 231.769 116.602,231.298 116.297,230.951 115.926 C 230.596 115.546,230.089 115.250,229.791 115.250 C 229.494 115.250,228.981 114.953,228.624 114.575 C 228.273 114.204,227.898 113.900,227.790 113.900 C 227.681 113.900,227.465 113.469,227.309 112.943 C 227.154 112.417,226.795 111.802,226.512 111.576 C 226.230 111.351,225.999 111.018,225.999 110.838 C 225.999 110.227,225.333 110.226,224.853 110.835 C 224.294 111.547,221.603 111.737,221.352 111.083 C 221.087 110.391,221.708 110.073,223.325 110.073 L 224.873 110.073 224.873 108.525 C 224.873 107.395,224.778 106.898,224.521 106.684 C 223.291 105.664,222.961 97.720,224.093 96.375 C 224.527 95.859,224.696 95.342,224.802 94.202 C 224.917 92.967,225.034 92.646,225.470 92.360 C 225.822 92.129,225.999 91.797,225.999 91.366 C 225.999 90.930,226.220 90.521,226.674 90.116 C 227.046 89.786,227.349 89.422,227.349 89.309 C 227.349 89.119,227.825 88.643,229.938 86.719 C 230.458 86.246,230.972 85.988,231.396 85.988 C 231.820 85.988,232.176 85.809,232.405 85.481 C 233.074 84.526,244.343 84.370,245.608 85.299 M278.793 85.422 C 279.108 85.811,279.475 85.988,279.966 85.988 C 280.538 85.988,280.955 86.258,282.048 87.338 C 282.801 88.081,283.506 88.689,283.615 88.689 C 283.725 88.689,283.938 89.069,284.089 89.533 C 284.241 89.997,284.603 90.663,284.895 91.013 C 285.330 91.536,285.425 91.907,285.425 93.095 C 285.425 95.410,285.359 95.442,280.598 95.442 C 276.174 95.442,275.971 95.363,275.971 93.645 C 275.971 92.514,272.085 90.125,271.578 90.945 C 271.525 91.031,270.888 91.269,270.163 91.472 C 268.221 92.017,267.829 92.536,267.912 94.455 L 267.980 96.005 268.918 96.073 C 269.621 96.124,269.948 96.280,270.218 96.692 C 270.531 97.170,270.749 97.243,271.869 97.243 C 273.425 97.243,274.574 97.544,274.944 98.049 C 275.138 98.315,275.688 98.456,276.847 98.539 C 278.243 98.639,278.528 98.732,278.826 99.187 C 279.091 99.592,279.379 99.719,280.033 99.719 C 280.731 99.719,280.983 99.846,281.373 100.394 C 281.638 100.765,281.969 101.069,282.111 101.069 C 282.444 101.069,284.074 102.661,284.074 102.986 C 284.074 103.123,284.378 103.460,284.750 103.735 L 285.425 104.234 285.425 107.548 C 285.424 110.409,285.364 110.968,284.986 111.649 C 284.746 112.082,284.388 112.769,284.193 113.176 C 283.997 113.583,283.586 114.011,283.280 114.127 C 282.974 114.244,282.724 114.497,282.724 114.689 C 282.724 114.882,282.546 115.102,282.330 115.178 C 282.113 115.254,281.665 115.566,281.334 115.872 C 280.993 116.187,280.266 116.515,279.659 116.628 C 279.069 116.738,278.344 117.056,278.048 117.334 C 276.997 118.323,265.841 118.173,265.841 117.169 C 265.841 116.981,265.715 116.826,265.560 116.825 C 264.787 116.821,263.602 116.318,263.483 115.942 C 263.399 115.678,263.041 115.465,262.517 115.366 C 261.414 115.160,259.764 113.461,259.764 112.534 C 259.764 112.095,259.602 111.805,259.257 111.623 C 258.548 111.250,258.420 110.993,258.417 109.932 C 258.414 109.384,258.274 108.888,258.075 108.723 C 257.670 108.386,257.634 107.566,258.008 107.192 C 258.342 106.858,265.440 106.811,266.051 107.139 C 266.275 107.258,266.514 107.639,266.583 107.985 C 266.652 108.331,267.031 108.918,267.424 109.288 C 267.818 109.658,268.368 110.189,268.648 110.467 C 269.131 110.947,269.332 110.974,272.554 110.974 L 275.950 110.974 276.095 110.200 C 276.175 109.775,276.433 109.253,276.668 109.040 C 277.237 108.526,277.208 108.226,276.533 107.639 C 276.224 107.370,275.971 107.055,275.971 106.938 C 275.971 106.822,275.762 106.661,275.508 106.580 C 275.253 106.499,274.952 106.188,274.838 105.890 C 274.651 105.399,274.501 105.346,273.292 105.346 C 272.189 105.346,271.835 105.246,271.278 104.778 C 270.721 104.309,270.278 104.184,268.758 104.067 C 267.256 103.951,266.808 103.827,266.345 103.397 C 265.956 103.037,265.505 102.870,264.923 102.870 C 264.233 102.870,263.980 102.741,263.590 102.195 C 263.326 101.823,262.983 101.519,262.828 101.519 C 262.673 101.519,262.342 101.292,262.093 101.013 C 261.844 100.734,261.266 100.203,260.810 99.831 C 260.265 99.389,259.896 98.845,259.739 98.255 C 259.606 97.760,259.281 97.121,259.016 96.834 C 258.209 95.964,258.170 93.188,258.953 92.405 C 259.277 92.081,259.633 91.410,259.745 90.912 C 259.857 90.414,260.119 89.819,260.327 89.589 C 260.535 89.358,260.874 88.834,261.079 88.423 C 261.284 88.012,261.763 87.521,262.142 87.331 C 262.522 87.141,263.118 86.761,263.467 86.487 C 263.816 86.212,264.234 85.988,264.396 85.988 C 264.558 85.988,264.850 85.760,265.044 85.481 C 265.517 84.806,267.391 84.649,273.607 84.767 L 278.334 84.856 278.793 85.422 M162.787 92.178 C 162.646 92.487,162.415 92.741,162.274 92.741 C 161.835 92.741,160.270 94.464,160.270 94.948 C 160.270 95.200,160.017 95.708,159.707 96.076 C 159.148 96.741,159.145 96.769,159.145 101.301 L 159.145 105.857 159.707 106.379 C 160.024 106.672,160.270 107.151,160.270 107.474 C 160.270 108.231,161.868 109.848,162.616 109.848 C 162.916 109.848,163.478 110.114,163.864 110.439 C 164.722 111.161,166.276 111.106,167.108 110.324 C 167.387 110.062,167.739 109.848,167.890 109.848 C 168.042 109.848,168.570 109.418,169.064 108.891 C 169.557 108.365,170.212 107.678,170.518 107.363 L 171.075 106.792 171.075 101.272 L 171.075 95.752 170.421 95.268 C 169.970 94.935,169.720 94.510,169.618 93.901 C 169.479 93.084,169.403 93.008,168.587 92.877 C 167.995 92.783,167.585 92.552,167.339 92.176 C 166.773 91.312,163.181 91.314,162.787 92.178 M235.544 93.057 C 234.415 94.215,234.149 94.634,234.043 95.425 C 233.971 95.964,233.715 96.573,233.460 96.810 C 232.491 97.713,232.435 104.629,233.389 105.644 C 233.693 105.966,233.968 106.607,234.043 107.160 C 234.214 108.436,235.530 109.848,236.547 109.848 C 237.041 109.848,237.350 110.011,237.612 110.411 C 238.190 111.293,240.169 111.234,240.993 110.310 C 241.391 109.863,241.839 109.625,242.367 109.579 C 243.057 109.519,243.188 109.403,243.456 108.619 C 243.624 108.128,243.959 107.571,244.200 107.381 C 244.543 107.110,244.657 106.689,244.721 105.454 C 244.783 104.271,244.930 103.695,245.306 103.168 C 245.938 102.280,246.040 99.600,245.458 99.175 C 245.073 98.894,244.696 97.538,244.687 96.408 C 244.684 96.012,244.429 95.314,244.119 94.858 C 243.810 94.402,243.557 93.860,243.557 93.655 C 243.557 93.134,243.109 92.741,242.516 92.741 C 242.241 92.741,241.714 92.487,241.347 92.178 C 240.745 91.672,240.488 91.617,238.797 91.632 L 236.916 91.649 235.544 93.057 " stroke="none" fill="#040404" fill-rule="evenodd"></path><path id="path2" d="M304.155 72.975 C 303.728 73.401,303.763 136.930,304.189 137.284 C 304.412 137.469,308.793 137.522,320.228 137.480 L 335.959 137.423 335.959 105.121 L 335.959 72.819 320.193 72.762 C 308.117 72.717,304.363 72.767,304.155 72.975 " stroke="none" fill="#fcfcfc" fill-rule="evenodd"></path><path id="path3" d="M303.666 72.467 C 303.508 72.761,303.433 83.398,303.433 105.301 L 303.433 137.700 303.899 138.293 L 304.366 138.886 320.024 138.886 L 335.681 138.886 336.439 138.082 L 337.198 137.278 337.198 105.144 L 337.198 73.010 336.677 72.521 L 336.156 72.032 320.027 72.032 C 304.312 72.032,303.893 72.043,303.666 72.467 M335.959 105.121 L 335.959 137.423 320.228 137.480 C 308.793 137.522,304.412 137.469,304.189 137.284 C 303.763 136.930,303.728 73.401,304.155 72.975 C 304.363 72.767,308.117 72.717,320.193 72.762 L 335.959 72.819 335.959 105.121 M186.039 95.667 C 186.039 107.490,186.067 112.327,186.100 106.415 C 186.133 100.504,186.133 90.830,186.100 84.918 C 186.067 79.007,186.039 83.844,186.039 95.667 M136.315 75.163 C 136.071 75.433,135.961 75.831,136.021 76.232 L 136.117 76.871 136.151 76.214 C 136.169 75.852,136.352 75.371,136.557 75.144 C 136.762 74.918,136.879 74.733,136.817 74.733 C 136.755 74.733,136.529 74.926,136.315 75.163 M205.684 74.892 C 205.962 74.945,206.418 74.945,206.697 74.892 C 206.975 74.838,206.747 74.794,206.190 74.794 C 205.633 74.794,205.405 74.838,205.684 74.892 M122.377 75.183 C 122.521 75.369,122.683 75.824,122.738 76.196 L 122.836 76.871 122.870 76.167 C 122.891 75.733,122.753 75.345,122.510 75.154 C 122.167 74.885,122.150 74.889,122.377 75.183 M113.144 77.884 C 113.285 78.070,113.451 78.424,113.512 78.672 C 113.617 79.100,113.624 79.098,113.649 78.643 C 113.663 78.380,113.497 78.025,113.281 77.855 C 112.938 77.587,112.920 77.590,113.144 77.884 M145.459 77.929 C 145.310 78.078,145.204 78.508,145.222 78.886 L 145.256 79.572 145.355 78.897 C 145.409 78.526,145.558 78.095,145.686 77.940 C 145.983 77.581,145.815 77.573,145.459 77.929 M143.407 81.572 L 142.864 82.273 143.508 81.661 C 143.862 81.325,144.106 81.009,144.051 80.959 C 143.996 80.910,143.706 81.186,143.407 81.572 M125.605 81.711 C 125.737 81.958,125.959 82.161,126.098 82.161 C 126.237 82.161,126.167 81.958,125.943 81.711 C 125.719 81.463,125.497 81.261,125.450 81.261 C 125.403 81.261,125.472 81.463,125.605 81.711 M132.752 82.057 C 132.190 82.808,132.263 83.018,132.834 82.292 C 133.095 81.959,133.273 81.652,133.228 81.608 C 133.183 81.565,132.968 81.767,132.752 82.057 M195.266 95.667 C 195.266 103.281,195.294 106.396,195.329 102.589 C 195.364 98.782,195.364 92.552,195.329 88.745 C 195.294 84.938,195.266 88.053,195.266 95.667 M217.727 84.975 C 217.729 85.470,217.776 85.646,217.829 85.366 C 217.883 85.086,217.881 84.681,217.825 84.466 C 217.769 84.250,217.724 84.479,217.727 84.975 M162.577 84.792 C 162.794 84.849,163.149 84.849,163.365 84.792 C 163.582 84.736,163.405 84.689,162.971 84.689 C 162.538 84.689,162.361 84.736,162.577 84.792 M236.300 84.796 C 236.580 84.850,236.985 84.848,237.200 84.792 C 237.415 84.735,237.186 84.691,236.691 84.694 C 236.196 84.696,236.020 84.742,236.300 84.796 M269.164 84.796 C 269.444 84.850,269.849 84.848,270.065 84.792 C 270.280 84.735,270.051 84.691,269.555 84.694 C 269.060 84.696,268.884 84.742,269.164 84.796 M273.891 84.796 C 274.171 84.850,274.576 84.848,274.792 84.792 C 275.007 84.735,274.778 84.691,274.282 84.694 C 273.787 84.696,273.611 84.742,273.891 84.796 M157.175 86.143 C 157.392 86.199,157.746 86.199,157.963 86.143 C 158.180 86.086,158.002 86.040,157.569 86.040 C 157.136 86.040,156.958 86.086,157.175 86.143 M279.629 86.143 C 279.845 86.199,280.200 86.199,280.416 86.143 C 280.633 86.086,280.456 86.040,280.023 86.040 C 279.589 86.040,279.412 86.086,279.629 86.143 M218.099 86.623 C 218.236 86.879,218.459 87.157,218.594 87.240 C 218.771 87.349,218.770 87.261,218.592 86.928 C 218.455 86.672,218.232 86.394,218.097 86.311 C 217.920 86.202,217.921 86.290,218.099 86.623 M129.709 87.563 C 129.709 87.997,129.755 88.174,129.812 87.957 C 129.869 87.741,129.869 87.386,129.812 87.169 C 129.755 86.953,129.709 87.130,129.709 87.563 M174.001 86.970 C 174.001 87.032,174.305 87.299,174.676 87.563 C 175.048 87.828,175.352 87.994,175.352 87.932 C 175.352 87.870,175.048 87.603,174.676 87.338 C 174.305 87.074,174.001 86.908,174.001 86.970 M140.029 87.774 C 140.019 87.952,139.786 88.357,139.511 88.674 L 139.011 89.252 139.651 88.657 C 140.002 88.330,140.235 87.925,140.168 87.756 C 140.070 87.510,140.043 87.513,140.029 87.774 M152.156 91.328 C 152.094 91.851,152.129 92.193,152.234 92.088 C 152.339 91.983,152.389 91.555,152.346 91.137 C 152.270 90.396,152.265 90.400,152.156 91.328 M271.000 90.978 C 270.417 91.302,270.367 91.370,270.793 91.258 C 271.103 91.176,271.461 91.027,271.589 90.925 C 271.717 90.824,271.970 90.834,272.152 90.949 C 272.571 91.215,272.883 91.224,272.724 90.967 C 272.472 90.560,271.745 90.565,271.000 90.978 M284.750 91.008 C 284.939 91.247,285.145 92.143,285.220 93.045 L 285.352 94.654 285.388 93.147 C 285.420 91.862,285.350 91.562,284.918 91.110 C 284.640 90.819,284.564 90.773,284.750 91.008 M258.487 94.429 C 258.488 95.295,258.529 95.622,258.577 95.155 C 258.626 94.688,258.625 93.979,258.576 93.580 C 258.526 93.180,258.486 93.562,258.487 94.429 M267.712 94.429 C 267.713 95.172,267.755 95.448,267.805 95.044 C 267.855 94.639,267.854 94.031,267.803 93.693 C 267.752 93.355,267.711 93.686,267.712 94.429 M276.023 93.866 C 276.023 94.299,276.069 94.477,276.126 94.260 C 276.183 94.043,276.183 93.689,276.126 93.472 C 276.069 93.255,276.023 93.433,276.023 93.866 M169.742 94.338 C 169.732 94.535,169.952 94.890,170.231 95.125 C 170.733 95.551,170.734 95.550,170.373 95.104 C 170.172 94.856,169.952 94.502,169.884 94.316 C 169.779 94.030,169.757 94.033,169.742 94.338 M219.313 95.442 C 219.313 96.123,219.356 96.401,219.407 96.061 C 219.459 95.720,219.459 95.163,219.407 94.823 C 219.356 94.482,219.313 94.761,219.313 95.442 M233.934 95.104 C 233.937 95.599,233.983 95.775,234.037 95.495 C 234.090 95.215,234.088 94.810,234.032 94.595 C 233.976 94.380,233.932 94.609,233.934 95.104 M253.993 96.455 C 253.994 97.693,254.032 98.170,254.077 97.516 C 254.123 96.862,254.122 95.849,254.076 95.265 C 254.030 94.681,253.993 95.217,253.993 96.455 M150.422 95.226 C 149.711 96.103,149.787 96.304,150.506 95.450 C 150.831 95.063,151.059 94.714,151.013 94.674 C 150.966 94.634,150.701 94.882,150.422 95.226 M224.679 95.202 C 224.662 95.504,224.423 96.010,224.148 96.328 L 223.648 96.905 224.280 96.317 C 224.731 95.899,224.884 95.575,224.811 95.192 L 224.710 94.654 224.679 95.202 M278.492 95.384 C 279.569 95.425,281.392 95.425,282.543 95.385 C 283.695 95.344,282.814 95.310,280.585 95.310 C 278.357 95.309,277.415 95.343,278.492 95.384 M244.743 96.567 C 244.743 97.124,244.787 97.352,244.841 97.074 C 244.895 96.795,244.895 96.339,244.841 96.061 C 244.787 95.782,244.743 96.010,244.743 96.567 M149.786 101.294 C 149.786 103.956,149.819 105.045,149.858 103.714 C 149.898 102.383,149.898 100.205,149.858 98.875 C 149.819 97.544,149.786 98.633,149.786 101.294 M270.315 97.074 C 270.561 97.387,270.928 97.459,272.115 97.424 L 273.607 97.381 272.153 97.300 C 271.353 97.255,270.542 97.097,270.352 96.949 C 270.048 96.713,270.044 96.728,270.315 97.074 M159.014 101.407 C 159.014 103.883,159.047 104.927,159.087 103.726 C 159.128 102.526,159.128 100.500,159.088 99.224 C 159.047 97.949,159.014 98.931,159.014 101.407 M136.635 97.841 C 136.635 97.964,136.913 98.310,137.254 98.610 L 137.873 99.156 137.310 98.481 C 137.001 98.109,136.722 97.763,136.691 97.711 C 136.660 97.660,136.635 97.718,136.635 97.841 M244.914 98.214 C 244.900 98.580,245.380 99.268,245.647 99.265 C 245.835 99.263,245.844 99.210,245.676 99.096 C 245.541 99.005,245.317 98.728,245.176 98.481 C 245.036 98.233,244.918 98.113,244.914 98.214 M279.744 99.878 C 280.024 99.932,280.429 99.930,280.644 99.873 C 280.859 99.817,280.630 99.773,280.135 99.775 C 279.640 99.778,279.464 99.824,279.744 99.878 M245.875 101.069 C 245.875 101.750,245.917 102.029,245.969 101.688 C 246.020 101.348,246.020 100.791,245.969 100.450 C 245.917 100.110,245.875 100.388,245.875 101.069 M282.071 101.125 C 282.124 101.156,282.622 101.587,283.177 102.082 L 284.187 102.983 283.297 102.026 C 282.808 101.500,282.310 101.069,282.190 101.069 C 282.071 101.069,282.017 101.095,282.071 101.125 M245.275 103.193 C 244.749 103.996,244.820 104.167,245.383 103.451 C 245.645 103.119,245.810 102.798,245.751 102.739 C 245.692 102.679,245.478 102.884,245.275 103.193 M118.428 103.894 C 118.414 104.148,118.301 104.478,118.178 104.627 C 118.054 104.776,118.115 104.757,118.312 104.586 C 118.509 104.414,118.622 104.085,118.562 103.853 C 118.465 103.474,118.451 103.478,118.428 103.894 M253.992 105.796 C 253.992 106.972,254.030 107.454,254.077 106.866 C 254.123 106.277,254.123 105.315,254.077 104.727 C 254.030 104.139,253.992 104.620,253.992 105.796 M270.006 104.160 C 270.377 104.213,270.934 104.476,271.244 104.745 L 271.806 105.234 271.261 104.615 C 270.867 104.168,270.522 104.005,270.023 104.029 L 269.330 104.063 270.006 104.160 M285.199 107.551 L 285.311 111.086 285.374 107.727 C 285.409 105.880,285.359 104.289,285.262 104.192 C 285.166 104.096,285.138 105.607,285.199 107.551 M244.754 105.571 C 244.754 106.376,244.795 106.705,244.845 106.303 C 244.895 105.900,244.895 105.242,244.845 104.840 C 244.795 104.437,244.754 104.766,244.754 105.571 M217.727 106.359 C 217.729 106.854,217.776 107.030,217.829 106.750 C 217.883 106.470,217.881 106.065,217.825 105.850 C 217.769 105.635,217.724 105.864,217.727 106.359 M233.913 107.413 C 233.883 108.118,233.987 108.314,234.609 108.726 L 235.340 109.210 234.738 108.685 C 234.360 108.356,234.100 107.865,234.042 107.372 L 233.949 106.584 233.913 107.413 M258.008 107.192 C 257.859 107.340,257.738 107.605,257.738 107.780 C 257.738 107.995,257.865 107.945,258.132 107.627 C 258.454 107.241,258.831 107.143,260.214 107.084 L 261.902 107.011 260.090 106.967 C 258.925 106.938,258.182 107.018,258.008 107.192 M262.865 107.087 C 263.394 107.134,264.204 107.134,264.665 107.085 C 265.126 107.037,264.693 106.998,263.703 106.999 C 262.712 107.000,262.335 107.039,262.865 107.087 M253.236 108.875 L 252.673 109.449 253.292 109.060 C 253.633 108.846,253.911 108.581,253.911 108.472 C 253.911 108.199,253.877 108.219,253.236 108.875 M224.891 109.567 C 224.875 110.041,224.775 110.073,223.325 110.073 C 221.708 110.073,221.087 110.391,221.352 111.083 C 221.603 111.737,224.294 111.547,224.853 110.835 C 225.167 110.437,225.444 110.293,225.714 110.388 C 226.021 110.497,226.002 110.439,225.632 110.132 C 225.368 109.914,225.098 109.584,225.031 109.398 C 224.952 109.178,224.903 109.238,224.891 109.567 M125.212 110.186 C 125.214 110.681,125.260 110.857,125.314 110.577 C 125.368 110.297,125.366 109.892,125.309 109.677 C 125.253 109.461,125.209 109.690,125.212 110.186 M258.470 110.186 C 258.472 110.681,258.518 110.857,258.572 110.577 C 258.626 110.297,258.624 109.892,258.568 109.677 C 258.511 109.461,258.467 109.690,258.470 110.186 M241.172 110.126 C 240.856 110.496,240.843 110.551,241.122 110.335 C 241.331 110.174,241.787 109.956,242.135 109.852 L 242.769 109.662 242.185 109.642 C 241.840 109.631,241.424 109.829,241.172 110.126 M163.855 110.580 C 164.248 111.026,164.593 111.189,165.093 111.165 L 165.785 111.131 165.110 111.034 C 164.738 110.981,164.181 110.718,163.872 110.449 L 163.309 109.961 163.855 110.580 M238.436 111.129 C 238.652 111.185,239.007 111.185,239.223 111.129 C 239.440 111.072,239.263 111.026,238.829 111.026 C 238.396 111.026,238.219 111.072,238.436 111.129 M270.860 111.141 C 271.825 111.183,273.345 111.183,274.237 111.140 C 275.128 111.098,274.339 111.063,272.482 111.064 C 270.625 111.064,269.895 111.099,270.860 111.141 M259.781 112.788 C 259.772 112.981,259.921 113.335,260.114 113.575 C 260.458 114.005,260.460 114.005,260.257 113.562 C 260.143 113.315,259.993 112.960,259.924 112.774 C 259.816 112.483,259.797 112.484,259.781 112.788 M111.030 116.263 C 111.033 116.759,111.079 116.935,111.133 116.655 C 111.187 116.375,111.185 115.969,111.128 115.754 C 111.072 115.539,111.028 115.768,111.030 116.263 M147.721 116.263 C 147.724 116.759,147.770 116.935,147.824 116.655 C 147.878 116.375,147.876 115.969,147.819 115.754 C 147.763 115.539,147.719 115.768,147.721 116.263 M203.264 117.164 C 203.110 117.349,202.827 117.501,202.636 117.501 C 202.445 117.501,202.348 117.561,202.422 117.635 C 202.635 117.848,203.436 117.515,203.574 117.155 C 203.736 116.733,203.619 116.736,203.264 117.164 M113.968 117.895 C 115.306 117.934,117.433 117.934,118.695 117.894 C 119.958 117.854,118.863 117.822,116.263 117.822 C 113.663 117.822,112.631 117.855,113.968 117.895 M140.305 117.895 C 141.642 117.934,143.770 117.934,145.032 117.894 C 146.294 117.854,145.200 117.822,142.600 117.822 C 140.000 117.822,138.967 117.855,140.305 117.895 M162.802 117.894 C 164.133 117.934,166.311 117.934,167.642 117.894 C 168.973 117.855,167.884 117.822,165.222 117.822 C 162.560 117.822,161.472 117.855,162.802 117.894 M190.264 117.895 C 192.338 117.932,195.732 117.932,197.805 117.895 C 199.879 117.858,198.182 117.827,194.035 117.827 C 189.887 117.827,188.191 117.858,190.264 117.895 M236.622 117.894 C 237.946 117.934,240.175 117.934,241.574 117.895 C 242.974 117.855,241.891 117.823,239.167 117.822 C 236.443 117.822,235.298 117.855,236.622 117.894 M269.274 117.895 C 270.729 117.934,273.109 117.934,274.564 117.895 C 276.019 117.855,274.828 117.823,271.919 117.823 C 269.010 117.823,267.819 117.855,269.274 117.895 " stroke="none" fill="#5c5c5c" fill-rule="evenodd"></path><path id="path4" d="M111.469 73.877 C 111.036 74.310,111.155 74.877,111.761 75.275 C 112.179 75.549,112.324 75.841,112.324 76.411 C 112.324 77.006,112.475 77.286,112.999 77.659 C 113.487 78.006,113.675 78.323,113.675 78.800 C 113.675 79.163,113.852 79.644,114.069 79.868 C 115.125 80.964,115.908 82.174,116.050 82.931 C 116.161 83.525,116.363 83.828,116.742 83.972 C 117.146 84.126,117.276 84.346,117.276 84.874 C 117.276 85.343,117.489 85.785,117.925 86.221 C 118.282 86.577,118.636 87.119,118.713 87.426 C 118.790 87.732,119.009 88.138,119.199 88.329 C 119.390 88.519,119.648 88.968,119.773 89.326 C 119.898 89.684,120.248 90.090,120.551 90.229 C 121.001 90.434,121.103 90.644,121.103 91.370 C 121.103 92.102,121.223 92.345,121.778 92.741 C 122.201 93.042,122.454 93.419,122.454 93.752 C 122.454 94.043,122.726 94.606,123.060 95.002 L 123.665 95.722 123.067 96.158 C 122.714 96.415,122.411 96.903,122.327 97.349 C 122.249 97.765,121.942 98.334,121.644 98.613 C 121.347 98.893,121.103 99.254,121.103 99.415 C 121.103 99.576,120.862 99.866,120.568 100.059 C 120.220 100.287,119.984 100.713,119.894 101.275 C 119.802 101.854,119.568 102.263,119.191 102.511 C 118.769 102.787,118.627 103.076,118.627 103.658 C 118.627 104.235,118.485 104.529,118.073 104.798 C 117.768 104.998,117.451 105.380,117.367 105.648 C 117.283 105.915,116.975 106.420,116.683 106.770 C 116.390 107.120,116.151 107.579,116.151 107.789 C 116.151 108.000,115.847 108.439,115.476 108.765 C 115.001 109.181,114.800 109.562,114.800 110.048 C 114.800 110.528,114.636 110.846,114.259 111.093 C 113.961 111.288,113.651 111.714,113.569 112.039 C 113.487 112.365,113.174 112.925,112.872 113.283 C 112.571 113.641,112.324 114.076,112.324 114.250 C 112.324 114.423,112.066 114.734,111.751 114.940 C 111.242 115.274,111.185 115.445,111.244 116.465 L 111.311 117.614 116.199 117.675 L 121.087 117.735 121.415 117.112 C 121.595 116.769,121.953 116.312,122.211 116.097 C 122.493 115.861,122.679 115.438,122.679 115.033 C 122.679 114.570,122.848 114.249,123.224 114.003 C 123.584 113.767,123.821 113.341,123.921 112.751 C 124.020 112.163,124.258 111.735,124.613 111.502 C 125.029 111.230,125.155 110.947,125.155 110.288 C 125.155 109.599,125.283 109.337,125.800 108.969 C 126.252 108.647,126.488 108.245,126.587 107.627 C 126.664 107.143,126.873 106.690,127.050 106.622 C 127.228 106.554,127.589 106.062,127.853 105.528 C 128.759 103.697,129.244 102.870,129.412 102.870 C 129.670 102.870,131.007 105.022,131.007 105.436 C 131.007 105.636,131.311 106.118,131.683 106.507 C 132.107 106.951,132.358 107.450,132.358 107.850 C 132.358 108.281,132.540 108.606,132.921 108.856 C 133.342 109.132,133.483 109.421,133.483 110.007 C 133.483 110.594,133.652 110.937,134.159 111.382 C 134.611 111.778,134.834 112.185,134.834 112.612 C 134.834 113.023,135.063 113.465,135.480 113.856 C 135.835 114.190,136.197 114.766,136.285 115.138 C 136.373 115.509,136.605 115.991,136.801 116.209 C 136.997 116.426,137.271 116.831,137.409 117.109 C 137.659 117.609,137.707 117.614,142.607 117.614 L 147.552 117.614 147.620 116.446 C 147.677 115.449,147.618 115.241,147.211 115.023 C 146.949 114.883,146.531 114.345,146.282 113.828 C 145.343 111.874,145.062 111.446,144.569 111.218 C 144.181 111.038,144.063 110.794,144.063 110.170 C 144.063 109.549,143.904 109.218,143.388 108.765 C 143.016 108.439,142.712 108.031,142.712 107.858 C 142.712 107.397,141.572 105.596,140.855 104.925 C 140.429 104.526,140.236 104.121,140.236 103.623 C 140.236 103.077,140.071 102.783,139.561 102.420 C 139.069 102.070,138.886 101.757,138.886 101.268 C 138.886 100.842,138.681 100.407,138.323 100.076 C 138.014 99.789,137.760 99.457,137.760 99.338 C 137.760 99.219,137.517 98.893,137.219 98.613 C 136.921 98.334,136.614 97.765,136.536 97.349 C 136.452 96.901,136.146 96.410,135.783 96.141 L 135.172 95.689 135.791 95.106 C 136.192 94.728,136.410 94.292,136.410 93.864 C 136.410 93.392,136.602 93.062,137.085 92.705 C 137.568 92.348,137.760 92.018,137.760 91.546 C 137.760 91.159,138.016 90.575,138.379 90.134 C 139.701 88.526,140.020 88.026,140.156 87.349 C 140.233 86.963,140.510 86.534,140.773 86.396 C 141.421 86.055,141.579 85.772,141.583 84.944 C 141.586 84.453,141.749 84.133,142.119 83.890 C 142.411 83.699,142.714 83.223,142.792 82.833 C 142.945 82.070,143.581 81.117,144.569 80.175 C 144.981 79.783,145.189 79.354,145.189 78.897 C 145.189 78.415,145.390 78.032,145.864 77.617 C 146.330 77.208,146.539 76.817,146.539 76.355 C 146.539 75.889,146.710 75.573,147.102 75.316 C 147.707 74.920,147.830 74.313,147.394 73.877 C 147.202 73.685,145.813 73.607,142.572 73.607 L 138.019 73.607 137.104 74.564 C 136.477 75.220,136.189 75.721,136.187 76.160 C 136.185 76.587,135.960 76.996,135.509 77.392 C 135.017 77.823,134.834 78.184,134.834 78.720 C 134.834 79.249,134.650 79.621,134.178 80.041 C 133.817 80.362,133.457 80.887,133.376 81.206 C 133.296 81.526,133.034 82.037,132.794 82.342 C 132.554 82.647,132.358 83.036,132.358 83.206 C 132.358 83.376,132.105 83.735,131.795 84.004 C 131.486 84.273,131.232 84.734,131.232 85.028 C 131.232 85.331,130.947 85.825,130.573 86.169 C 130.137 86.571,129.890 87.042,129.842 87.563 C 129.740 88.674,129.118 88.636,129.024 87.513 C 128.973 86.887,128.787 86.555,128.293 86.203 C 127.858 85.894,127.631 85.536,127.631 85.161 C 127.631 84.847,127.378 84.289,127.068 83.921 C 126.759 83.553,126.505 83.123,126.505 82.964 C 126.505 82.806,126.261 82.413,125.963 82.091 C 125.664 81.769,125.354 81.205,125.273 80.837 C 125.192 80.469,124.879 80.006,124.578 79.809 C 124.202 79.563,124.029 79.241,124.029 78.787 C 124.029 78.355,123.795 77.885,123.354 77.434 C 122.936 77.006,122.679 76.508,122.679 76.126 C 122.679 75.744,122.442 75.284,122.060 74.921 C 121.719 74.599,121.310 74.171,121.150 73.971 C 120.777 73.503,111.929 73.418,111.469 73.877 M186.408 73.913 C 186.223 74.136,186.170 80.071,186.212 95.916 L 186.269 117.614 194.491 117.614 C 202.676 117.614,202.715 117.612,203.356 117.107 C 203.880 116.695,204.284 116.601,205.525 116.601 C 206.944 116.601,207.090 116.554,207.619 115.926 C 208.041 115.423,208.380 115.250,208.939 115.250 C 209.493 115.250,209.848 115.073,210.284 114.575 C 210.610 114.204,211.071 113.900,211.308 113.900 C 211.545 113.900,211.977 113.647,212.268 113.337 C 212.559 113.028,212.906 112.774,213.039 112.774 C 213.416 112.774,215.154 110.648,215.321 109.982 C 215.404 109.654,215.662 109.284,215.895 109.159 C 216.129 109.034,216.320 108.786,216.320 108.609 C 216.320 108.431,216.610 108.071,216.966 107.808 C 217.501 107.412,217.633 107.118,217.740 106.086 C 217.829 105.226,218.027 104.672,218.381 104.295 C 219.493 103.112,219.478 88.461,218.364 86.959 C 218.030 86.508,217.791 85.811,217.721 85.083 C 217.635 84.189,217.506 83.887,217.158 83.758 C 216.909 83.666,216.543 83.282,216.344 82.905 C 215.233 80.803,214.838 80.240,213.552 78.935 C 212.504 77.871,211.925 77.462,211.306 77.346 C 210.842 77.259,210.372 77.002,210.246 76.767 C 210.122 76.535,209.640 76.223,209.174 76.074 C 208.709 75.925,208.126 75.626,207.878 75.410 C 207.590 75.158,206.872 74.968,205.884 74.881 C 204.622 74.770,204.243 74.641,203.813 74.176 L 203.285 73.607 194.974 73.607 C 188.245 73.607,186.613 73.665,186.408 73.913 M121.448 75.063 C 121.987 75.602,122.228 76.049,122.228 76.510 C 122.228 77.145,122.714 77.884,123.131 77.884 C 123.239 77.884,123.396 78.346,123.480 78.910 C 123.586 79.616,123.792 80.039,124.143 80.269 C 124.423 80.452,124.714 80.913,124.790 81.292 C 124.865 81.671,125.181 82.282,125.491 82.651 C 125.801 83.019,126.055 83.449,126.055 83.606 C 126.055 83.763,126.258 84.076,126.506 84.300 C 126.754 84.525,127.065 85.109,127.197 85.598 C 127.343 86.141,127.598 86.530,127.851 86.596 C 128.271 86.706,128.523 87.286,128.528 88.155 C 128.538 89.688,130.191 89.287,130.430 87.694 C 130.531 87.024,130.697 86.663,130.906 86.663 C 131.082 86.663,131.376 86.305,131.559 85.867 C 131.742 85.430,132.052 84.911,132.248 84.715 C 132.445 84.518,132.664 84.063,132.736 83.703 C 132.808 83.342,133.099 82.865,133.383 82.642 C 133.667 82.418,133.968 81.869,134.052 81.421 C 134.145 80.925,134.416 80.469,134.744 80.253 C 135.163 79.979,135.284 79.700,135.284 79.012 C 135.284 78.321,135.396 78.066,135.791 77.858 C 136.457 77.508,136.627 77.226,136.631 76.470 C 136.634 76.058,136.902 75.576,137.415 75.063 L 138.195 74.282 142.705 74.282 C 147.079 74.282,147.797 74.395,146.680 74.904 C 146.278 75.087,146.108 75.395,145.996 76.146 C 145.884 76.891,145.712 77.206,145.320 77.384 C 144.962 77.547,144.744 77.894,144.635 78.475 C 144.465 79.384,143.656 80.568,142.611 81.438 C 142.419 81.598,142.262 82.060,142.262 82.465 C 142.262 83.023,142.098 83.323,141.587 83.701 C 141.070 84.083,140.912 84.377,140.912 84.956 C 140.912 85.513,140.764 85.807,140.349 86.079 C 140.039 86.282,139.786 86.590,139.786 86.763 C 139.786 86.937,139.539 87.372,139.238 87.730 C 138.937 88.088,138.623 88.648,138.541 88.973 C 138.460 89.299,138.150 89.725,137.853 89.919 C 137.497 90.152,137.266 90.574,137.172 91.161 C 137.079 91.745,136.847 92.170,136.495 92.400 C 136.170 92.613,135.959 92.970,135.959 93.309 C 135.959 93.615,135.753 94.073,135.500 94.325 C 134.530 95.296,134.654 96.792,135.705 96.792 C 135.812 96.792,135.955 97.201,136.022 97.701 C 136.105 98.316,136.332 98.757,136.727 99.068 C 137.048 99.320,137.310 99.665,137.310 99.835 C 137.310 100.004,137.511 100.284,137.756 100.456 C 138.001 100.627,138.284 101.165,138.384 101.650 C 138.516 102.288,138.736 102.614,139.177 102.826 C 139.686 103.071,139.786 103.265,139.786 104.003 C 139.786 104.687,139.908 104.965,140.327 105.240 C 140.625 105.435,140.932 105.845,141.008 106.152 C 141.085 106.458,141.336 106.895,141.565 107.124 C 141.794 107.353,142.076 107.832,142.192 108.188 C 142.309 108.544,142.625 108.935,142.896 109.057 C 143.260 109.222,143.388 109.476,143.388 110.036 C 143.388 110.587,143.572 110.965,144.063 111.424 C 144.434 111.771,144.738 112.195,144.738 112.366 C 144.738 112.817,146.199 115.015,146.761 115.408 C 147.111 115.654,147.221 115.934,147.171 116.454 L 147.102 117.164 142.741 117.225 C 138.296 117.287,137.760 117.201,137.760 116.426 C 137.760 116.236,137.507 115.749,137.198 115.343 C 136.888 114.937,136.635 114.493,136.635 114.355 C 136.635 114.217,136.386 113.856,136.082 113.552 C 135.778 113.248,135.462 112.639,135.379 112.199 C 135.289 111.718,135.015 111.258,134.694 111.047 C 134.321 110.803,134.158 110.483,134.155 109.991 C 134.151 109.155,133.994 108.881,133.315 108.523 C 132.945 108.328,132.808 108.055,132.808 107.510 C 132.808 106.988,132.605 106.551,132.133 106.057 C 131.701 105.605,131.458 105.115,131.458 104.699 C 131.458 104.252,131.280 103.931,130.895 103.679 C 130.585 103.476,130.332 103.164,130.332 102.985 C 130.332 102.807,130.129 102.552,129.882 102.420 C 129.344 102.132,128.531 102.477,128.531 102.992 C 128.531 103.174,128.279 103.542,127.972 103.810 C 127.664 104.077,127.351 104.624,127.275 105.024 C 127.200 105.424,126.906 105.954,126.621 106.202 C 126.320 106.464,126.037 107.040,125.946 107.575 C 125.861 108.082,125.705 108.497,125.601 108.497 C 125.186 108.497,124.705 109.243,124.705 109.886 C 124.705 110.353,124.492 110.766,124.029 111.199 C 123.570 111.628,123.354 112.045,123.354 112.503 C 123.354 112.904,123.213 113.231,123.005 113.310 C 122.813 113.384,122.450 113.876,122.198 114.404 C 121.946 114.931,121.514 115.768,121.238 116.263 L 120.735 117.164 116.248 117.164 L 111.761 117.164 111.687 116.515 C 111.633 116.040,111.783 115.699,112.250 115.239 C 113.231 114.273,113.856 113.363,114.037 112.643 C 114.127 112.282,114.487 111.718,114.838 111.390 C 115.305 110.953,115.476 110.580,115.476 109.998 C 115.476 109.416,115.590 109.167,115.902 109.068 C 116.136 108.994,116.449 108.640,116.597 108.281 C 116.746 107.923,117.061 107.455,117.297 107.241 C 117.533 107.027,117.728 106.640,117.730 106.380 C 117.734 105.813,117.917 105.540,118.514 105.211 C 118.831 105.036,118.985 104.682,119.034 104.018 C 119.089 103.281,119.215 103.031,119.611 102.881 C 119.946 102.754,120.218 102.356,120.410 101.714 C 120.571 101.178,120.894 100.605,121.128 100.441 C 121.362 100.277,121.553 99.944,121.553 99.700 C 121.553 99.442,121.775 99.173,122.085 99.055 C 122.671 98.832,122.904 98.401,122.904 97.538 C 122.904 97.200,123.132 96.790,123.467 96.527 C 124.176 95.969,124.066 94.091,123.324 94.091 C 123.224 94.091,123.057 93.762,122.953 93.360 C 122.835 92.899,122.541 92.519,122.159 92.334 C 121.656 92.090,121.553 91.893,121.553 91.168 C 121.553 90.455,121.429 90.207,120.878 89.814 C 120.451 89.511,120.203 89.136,120.203 88.798 C 120.203 88.503,119.949 87.989,119.640 87.655 C 119.330 87.321,119.077 86.913,119.077 86.748 C 119.077 86.583,118.824 86.282,118.514 86.079 C 118.122 85.823,117.952 85.507,117.952 85.039 C 117.952 84.583,117.735 84.165,117.276 83.737 C 116.860 83.348,116.601 82.881,116.601 82.519 C 116.601 82.174,116.323 81.641,115.926 81.225 C 115.554 80.836,115.250 80.387,115.250 80.227 C 115.250 80.067,115.058 79.801,114.823 79.636 C 114.587 79.471,114.281 78.914,114.142 78.399 C 113.982 77.803,113.727 77.409,113.445 77.320 C 113.115 77.215,112.999 76.978,112.999 76.406 C 112.999 75.658,112.377 74.733,111.874 74.733 C 111.750 74.733,111.649 74.631,111.649 74.508 C 111.649 74.365,113.302 74.282,116.158 74.282 L 120.668 74.282 121.448 75.063 M203.581 74.845 C 204.065 75.329,204.347 75.408,205.591 75.408 C 206.887 75.408,207.078 75.467,207.408 75.971 C 207.616 76.289,207.994 76.535,208.278 76.537 C 209.168 76.542,209.748 76.790,209.858 77.214 C 209.925 77.470,210.320 77.723,210.890 77.877 C 211.885 78.145,212.488 78.608,214.061 80.312 C 214.437 80.718,214.744 81.246,214.744 81.484 C 214.744 81.898,215.238 82.555,216.601 83.956 C 217.039 84.407,217.220 84.825,217.220 85.388 C 217.220 86.374,217.569 87.327,218.063 87.688 C 218.400 87.934,218.437 88.736,218.437 95.624 L 218.437 103.286 217.907 103.716 C 217.489 104.054,217.352 104.430,217.266 105.474 C 217.177 106.546,217.030 106.932,216.504 107.481 C 214.989 109.060,214.795 109.317,214.648 109.938 C 214.563 110.297,214.246 110.786,213.943 111.024 C 213.641 111.262,213.393 111.601,213.393 111.778 C 213.393 111.954,213.253 112.099,213.081 112.099 C 212.909 112.099,212.253 112.454,211.623 112.887 C 210.993 113.320,210.374 113.675,210.247 113.675 C 210.121 113.675,210.017 113.769,210.017 113.884 C 210.017 114.334,209.273 114.800,208.554 114.800 C 207.855 114.800,207.091 115.264,207.091 115.688 C 207.091 115.787,206.298 115.914,205.330 115.970 C 204.078 116.042,203.249 116.230,202.460 116.618 C 201.355 117.162,201.324 117.164,194.035 117.164 L 186.719 117.164 186.662 95.723 L 186.604 74.282 194.811 74.282 L 203.018 74.282 203.581 74.845 M194.980 81.306 C 194.776 81.510,194.710 85.016,194.710 95.707 L 194.710 109.838 195.269 110.204 C 195.742 110.514,196.402 110.558,199.567 110.490 L 203.307 110.411 203.800 109.792 C 204.153 109.350,204.498 109.173,205.009 109.173 C 205.527 109.173,205.943 108.955,206.513 108.385 C 206.946 107.952,207.405 107.597,207.533 107.597 C 207.661 107.597,207.766 107.469,207.766 107.312 C 207.766 107.155,208.019 106.654,208.328 106.199 C 208.638 105.743,209.001 104.859,209.135 104.233 C 209.285 103.535,209.499 103.095,209.689 103.095 C 210.363 103.095,210.505 101.500,210.429 94.825 L 210.355 88.242 209.736 87.669 C 209.292 87.258,209.116 86.876,209.116 86.324 C 209.116 85.152,206.135 82.161,204.967 82.161 C 204.525 82.161,204.164 82.067,204.164 81.952 C 204.164 81.055,195.818 80.468,194.980 81.306 M203.714 82.161 C 204.191 82.671,204.544 82.836,205.162 82.836 C 205.733 82.836,206.025 82.955,206.130 83.230 C 206.213 83.447,206.775 84.080,207.378 84.637 C 208.292 85.482,208.496 85.818,208.605 86.663 C 208.677 87.220,208.974 87.989,209.264 88.372 C 209.789 89.066,209.792 89.097,209.792 95.593 L 209.792 102.116 209.229 102.645 C 208.893 102.960,208.666 103.423,208.666 103.792 C 208.666 104.133,208.413 104.713,208.102 105.081 C 207.792 105.450,207.474 106.073,207.395 106.467 C 207.301 106.937,207.068 107.252,206.716 107.386 C 206.420 107.498,206.122 107.739,206.052 107.921 C 205.982 108.103,205.381 108.410,204.716 108.604 C 204.051 108.797,203.409 109.131,203.289 109.345 C 203.010 109.845,196.055 110.086,195.489 109.615 C 195.046 109.248,194.989 82.197,195.431 81.756 C 195.619 81.568,196.821 81.486,199.392 81.486 L 203.083 81.486 203.714 82.161 M161.462 84.795 C 159.211 84.876,159.155 84.891,158.689 85.545 C 158.329 86.051,158.036 86.213,157.481 86.213 C 156.409 86.213,152.392 90.141,152.392 91.188 C 152.392 91.672,152.185 92.077,151.716 92.515 C 151.201 92.997,151.041 93.344,151.041 93.980 C 151.041 94.541,150.857 95.033,150.478 95.483 L 149.916 96.152 149.916 101.223 L 149.916 106.294 150.478 106.963 C 150.890 107.452,151.041 107.895,151.041 108.611 C 151.041 109.542,151.129 109.705,152.046 110.476 C 152.236 110.636,152.393 111.041,152.395 111.376 C 152.398 112.055,154.797 114.805,155.925 115.423 C 157.704 116.399,158.147 116.601,158.505 116.601 C 158.720 116.601,159.170 116.854,159.504 117.164 L 160.111 117.727 165.369 117.727 L 170.628 117.727 171.117 117.164 C 171.455 116.774,171.837 116.601,172.355 116.601 C 172.966 116.601,173.358 116.353,174.488 115.250 C 175.249 114.508,175.951 113.900,176.047 113.900 C 176.143 113.900,176.288 113.691,176.369 113.436 C 176.450 113.181,176.756 112.863,177.048 112.730 C 177.341 112.596,177.683 112.193,177.809 111.832 C 177.934 111.472,178.243 110.915,178.495 110.595 C 178.747 110.275,178.953 109.687,178.953 109.288 C 178.953 108.791,179.165 108.343,179.629 107.858 L 180.304 107.151 180.304 101.420 C 180.304 96.015,180.159 94.541,179.629 94.541 C 179.371 94.541,178.953 93.432,178.953 92.749 C 178.953 92.394,178.725 91.827,178.447 91.489 C 177.576 90.433,176.396 89.163,175.581 88.405 C 175.150 88.004,174.485 87.348,174.104 86.947 C 173.721 86.544,173.072 86.151,172.651 86.067 C 172.233 85.983,171.682 85.686,171.426 85.406 C 170.920 84.851,166.851 84.602,161.462 84.795 M235.340 84.837 C 233.272 84.964,233.040 85.025,232.481 85.594 C 232.094 85.987,231.634 86.213,231.220 86.213 C 230.704 86.213,230.205 86.579,228.843 87.957 C 226.342 90.488,226.308 90.531,226.147 91.357 C 226.067 91.772,225.747 92.311,225.437 92.555 C 224.945 92.942,224.873 93.174,224.873 94.377 C 224.873 95.572,224.792 95.840,224.257 96.398 C 223.167 97.536,223.195 104.876,224.295 106.189 C 224.678 106.647,224.840 107.176,224.914 108.210 C 224.989 109.263,225.138 109.738,225.513 110.123 C 226.628 111.268,227.349 112.297,227.349 112.744 C 227.349 113.435,229.294 115.250,230.033 115.250 C 230.410 115.250,230.842 115.497,231.218 115.926 C 231.635 116.400,232.016 116.601,232.501 116.601 C 232.989 116.601,233.300 116.766,233.560 117.164 L 233.929 117.727 239.195 117.727 L 244.460 117.727 244.949 117.164 C 245.292 116.770,245.668 116.601,246.203 116.601 C 247.342 116.601,252.786 111.142,252.786 110.001 C 252.786 109.498,252.958 109.104,253.313 108.795 C 254.486 107.776,254.486 94.479,253.314 93.710 C 252.932 93.460,252.786 93.153,252.786 92.604 C 252.786 92.043,252.609 91.686,252.110 91.242 C 251.739 90.911,251.435 90.511,251.435 90.353 C 251.435 90.194,251.258 89.932,251.041 89.770 C 250.824 89.607,250.482 89.171,250.281 88.800 C 250.079 88.429,249.495 87.919,248.983 87.665 C 248.471 87.411,247.896 86.981,247.705 86.708 C 247.514 86.436,247.229 86.213,247.071 86.213 C 246.914 86.213,246.337 85.920,245.790 85.562 C 244.676 84.835,240.321 84.532,235.340 84.837 M268.057 84.829 C 265.819 84.965,265.621 85.016,265.086 85.594 C 264.770 85.934,264.371 86.213,264.199 86.213 C 264.026 86.213,263.715 86.401,263.506 86.632 C 263.297 86.862,262.728 87.231,262.240 87.450 C 261.588 87.745,261.287 88.053,261.100 88.618 C 260.961 89.040,260.603 89.629,260.305 89.927 C 259.985 90.248,259.764 90.733,259.764 91.115 C 259.764 91.514,259.548 91.965,259.201 92.290 C 258.430 93.014,258.354 96.015,259.089 96.681 C 259.337 96.905,259.652 97.503,259.788 98.010 C 260.035 98.929,261.381 100.420,262.737 101.276 C 263.073 101.488,263.561 101.933,263.823 102.266 C 264.193 102.736,264.492 102.870,265.174 102.870 C 265.791 102.870,266.188 103.019,266.520 103.375 C 266.919 103.804,267.272 103.893,268.836 103.959 C 270.405 104.026,270.766 104.118,271.248 104.571 C 271.648 104.948,272.202 105.150,273.138 105.260 C 274.383 105.407,274.550 105.502,275.921 106.846 L 277.380 108.276 276.788 109.131 C 276.462 109.600,276.196 110.136,276.196 110.322 C 276.196 111.079,275.696 111.199,272.543 111.199 L 269.430 111.199 268.254 110.280 C 267.465 109.663,266.914 108.997,266.577 108.254 C 266.301 107.645,265.947 107.141,265.789 107.134 C 259.747 106.869,257.042 107.356,258.096 108.520 C 258.300 108.745,258.521 109.412,258.587 110.003 C 258.672 110.755,258.861 111.197,259.219 111.478 C 259.499 111.699,259.796 112.182,259.877 112.552 C 260.087 113.508,261.765 115.250,262.475 115.250 C 262.821 115.250,263.270 115.512,263.632 115.926 C 264.036 116.386,264.434 116.601,264.880 116.601 C 265.298 116.601,265.712 116.805,266.024 117.164 L 266.514 117.727 271.941 117.727 C 277.327 117.727,277.374 117.722,278.004 117.192 C 278.354 116.898,279.089 116.590,279.638 116.507 C 280.268 116.413,280.828 116.153,281.157 115.804 C 281.443 115.500,281.786 115.249,281.919 115.247 C 282.206 115.242,283.605 113.703,284.471 112.437 C 285.070 111.561,285.089 111.436,285.158 107.935 L 285.229 104.333 283.842 102.822 C 283.080 101.991,282.257 101.248,282.014 101.171 C 281.771 101.094,281.479 100.786,281.366 100.487 C 281.198 100.047,281.000 99.944,280.322 99.944 C 279.720 99.944,279.307 99.774,278.853 99.339 C 278.345 98.852,277.953 98.715,276.838 98.634 C 275.875 98.565,275.214 98.372,274.668 98.001 C 274.019 97.561,273.596 97.468,272.241 97.468 C 270.674 97.468,270.577 97.437,270.118 96.792 C 269.754 96.281,269.461 96.117,268.910 96.117 C 267.199 96.117,267.088 92.751,268.771 91.913 C 271.115 90.746,271.870 90.529,272.481 90.846 C 272.813 91.018,273.455 91.270,273.908 91.406 C 275.314 91.827,276.003 92.599,276.166 93.934 L 276.308 95.104 280.443 95.166 C 283.303 95.208,284.674 95.147,284.889 94.969 C 285.465 94.492,285.298 91.836,284.637 90.940 C 284.328 90.520,284.074 89.993,284.074 89.767 C 284.074 89.542,283.557 88.878,282.924 88.291 C 282.292 87.705,281.564 86.998,281.308 86.719 C 281.014 86.400,280.580 86.213,280.132 86.213 C 279.627 86.213,279.248 86.018,278.820 85.537 C 278.262 84.912,278.105 84.862,276.679 84.862 C 275.833 84.862,274.086 84.822,272.798 84.773 C 271.510 84.723,269.377 84.749,268.057 84.829 M171.226 86.120 C 171.566 86.488,171.975 86.663,172.491 86.663 C 173.086 86.663,173.310 86.787,173.510 87.226 C 173.651 87.535,173.855 87.788,173.964 87.788 C 174.206 87.788,176.252 89.756,176.252 89.989 C 176.252 90.082,176.479 90.258,176.757 90.380 C 177.035 90.502,177.297 90.805,177.340 91.052 C 177.383 91.300,177.614 91.656,177.852 91.845 C 178.141 92.072,178.335 92.596,178.432 93.409 C 178.534 94.275,178.729 94.773,179.102 95.118 C 179.627 95.605,179.629 95.619,179.629 101.351 L 179.629 107.095 179.066 107.464 C 178.628 107.751,178.503 108.023,178.503 108.695 C 178.503 109.303,178.337 109.736,177.940 110.164 C 177.631 110.498,177.378 110.977,177.378 111.227 C 177.378 111.689,174.675 114.544,173.790 115.018 C 173.535 115.154,173.326 115.401,173.326 115.567 C 173.326 115.757,172.945 115.910,172.289 115.984 C 171.703 116.050,170.946 116.331,170.545 116.632 C 169.863 117.144,169.667 117.166,165.241 117.233 L 160.645 117.303 160.140 116.759 C 159.845 116.440,159.258 116.154,158.722 116.069 C 158.145 115.976,157.720 115.758,157.569 115.476 C 157.418 115.193,156.994 114.975,156.419 114.883 C 155.755 114.777,155.455 114.598,155.313 114.225 C 155.206 113.944,154.910 113.647,154.656 113.566 C 154.401 113.485,154.192 113.320,154.192 113.199 C 154.192 113.078,153.952 112.739,153.658 112.445 C 153.364 112.151,153.057 111.552,152.975 111.114 C 152.892 110.676,152.588 110.131,152.298 109.903 C 151.893 109.585,151.734 109.171,151.612 108.116 C 151.490 107.069,151.324 106.632,150.909 106.272 C 150.131 105.595,150.049 96.923,150.815 96.231 C 151.295 95.796,151.713 94.579,151.715 93.611 C 151.716 93.227,151.915 92.887,152.279 92.649 C 152.677 92.388,152.842 92.078,152.842 91.589 C 152.842 90.582,156.793 86.663,157.808 86.663 C 158.244 86.663,158.676 86.463,159.003 86.110 C 159.942 85.097,170.285 85.105,171.226 86.120 M245.044 86.013 C 245.304 86.256,245.876 86.514,246.313 86.585 C 246.859 86.673,247.186 86.882,247.354 87.251 C 247.489 87.547,247.744 87.788,247.921 87.788 C 248.099 87.788,248.582 88.147,248.995 88.585 C 249.409 89.023,250.025 89.671,250.366 90.026 C 250.706 90.380,250.985 90.779,250.985 90.912 C 250.985 91.046,251.238 91.320,251.548 91.523 C 251.880 91.741,252.110 92.106,252.110 92.414 C 252.110 93.257,252.492 94.021,252.977 94.148 C 253.888 94.386,253.749 107.673,252.828 108.419 C 252.492 108.690,252.262 109.176,252.180 109.787 C 252.091 110.447,251.891 110.840,251.519 111.084 C 251.225 111.277,250.985 111.586,250.985 111.771 C 250.985 111.957,250.740 112.220,250.441 112.356 C 250.142 112.493,249.846 112.802,249.783 113.044 C 249.719 113.285,249.461 113.537,249.208 113.603 C 248.955 113.669,248.686 113.921,248.609 114.162 C 248.533 114.403,248.216 114.698,247.905 114.816 C 247.594 114.934,247.290 115.220,247.230 115.451 C 247.149 115.761,246.846 115.902,246.079 115.989 C 245.351 116.071,244.909 116.265,244.610 116.635 C 244.188 117.156,244.110 117.165,239.293 117.239 L 234.404 117.313 234.041 116.760 C 233.783 116.366,233.390 116.163,232.684 116.057 C 231.940 115.945,231.630 115.774,231.448 115.376 C 231.275 114.997,230.947 114.801,230.300 114.692 C 229.678 114.587,229.350 114.399,229.253 114.093 C 229.175 113.848,228.886 113.545,228.610 113.419 C 228.286 113.271,228.017 112.845,227.847 112.212 C 227.675 111.569,227.429 111.183,227.130 111.088 C 226.879 111.008,226.674 110.806,226.674 110.638 C 226.674 110.470,226.409 110.017,226.084 109.632 C 225.630 109.092,225.455 108.567,225.321 107.348 C 225.197 106.217,225.012 105.620,224.673 105.259 C 223.926 104.465,223.948 97.876,224.700 97.075 C 225.089 96.661,225.232 96.167,225.338 94.872 C 225.457 93.414,225.551 93.141,226.074 92.730 C 226.404 92.470,226.674 92.127,226.674 91.968 C 226.674 91.808,226.927 91.305,227.237 90.849 C 227.546 90.393,227.800 89.870,227.800 89.687 C 227.800 89.504,228.051 89.240,228.358 89.100 C 228.665 88.960,228.972 88.669,229.041 88.454 C 229.109 88.238,229.466 87.937,229.833 87.785 C 230.200 87.633,230.501 87.380,230.501 87.222 C 230.501 86.887,230.998 86.663,231.740 86.663 C 232.030 86.663,232.563 86.414,232.924 86.110 C 234.034 85.176,244.061 85.096,245.044 86.013 M278.509 86.128 C 278.825 86.530,279.151 86.663,279.819 86.663 C 280.548 86.663,280.753 86.764,280.964 87.226 C 281.105 87.535,281.321 87.788,281.443 87.788 C 281.887 87.788,283.624 89.862,283.624 90.392 C 283.624 90.683,283.883 91.162,284.199 91.455 C 284.711 91.930,284.767 92.135,284.706 93.321 L 284.637 94.654 280.698 94.654 L 276.759 94.654 276.637 93.528 C 276.472 91.988,276.119 91.447,275.102 91.173 C 274.628 91.046,274.014 90.745,273.737 90.504 C 272.699 89.604,270.977 89.660,269.820 90.631 C 269.470 90.925,268.953 91.165,268.673 91.165 C 267.689 91.165,267.312 91.927,267.227 94.087 C 267.142 96.250,267.444 96.792,268.736 96.792 C 269.034 96.792,269.513 97.046,269.800 97.355 C 270.259 97.850,270.507 97.918,271.873 97.918 C 273.138 97.918,273.500 98.001,273.831 98.367 C 274.331 98.920,275.517 99.266,276.917 99.267 C 277.746 99.268,278.099 99.391,278.539 99.831 C 278.901 100.193,279.355 100.394,279.809 100.394 C 280.279 100.394,280.730 100.603,281.148 101.013 C 281.495 101.353,281.915 101.759,282.082 101.915 C 282.249 102.070,282.918 102.741,283.568 103.405 L 284.750 104.612 284.750 107.637 C 284.750 110.509,284.721 110.699,284.187 111.424 C 283.877 111.843,283.624 112.366,283.624 112.586 C 283.624 112.806,283.329 113.204,282.968 113.471 C 282.607 113.738,282.262 114.146,282.201 114.378 C 282.139 114.615,281.891 114.800,281.637 114.800 C 281.387 114.800,280.886 115.050,280.523 115.355 C 280.161 115.660,279.424 115.980,278.886 116.066 C 278.301 116.160,277.713 116.434,277.420 116.749 C 276.636 117.596,266.517 117.555,266.517 116.705 C 266.517 116.388,266.216 116.261,264.931 116.034 C 264.413 115.942,264.058 115.721,263.918 115.403 C 263.774 115.074,263.395 114.848,262.770 114.717 C 262.089 114.574,261.766 114.364,261.572 113.939 C 261.426 113.619,261.119 113.225,260.891 113.065 C 260.662 112.905,260.409 112.473,260.328 112.106 C 260.247 111.738,259.946 111.257,259.658 111.037 C 259.013 110.543,258.705 108.156,259.258 107.944 C 259.432 107.877,260.981 107.822,262.698 107.822 L 265.821 107.822 265.977 108.653 C 266.136 109.502,266.932 110.420,268.205 111.222 C 269.788 112.219,276.646 111.753,276.646 110.647 C 276.646 110.486,276.814 110.214,277.019 110.044 C 278.062 109.180,278.113 107.582,277.108 107.263 C 276.867 107.187,276.605 106.921,276.526 106.672 C 276.447 106.424,276.138 106.128,275.839 106.014 C 275.540 105.900,275.295 105.657,275.295 105.472 C 275.295 104.984,274.566 104.671,273.430 104.671 C 272.681 104.671,272.285 104.532,271.828 104.108 C 271.295 103.615,271.018 103.545,269.579 103.545 C 268.170 103.545,267.848 103.469,267.308 103.004 C 266.680 102.465,265.835 102.195,264.779 102.195 C 264.413 102.195,264.183 102.041,264.106 101.745 C 264.041 101.497,263.895 101.294,263.782 101.294 C 263.668 101.294,263.233 100.965,262.814 100.563 C 262.395 100.160,261.689 99.499,261.245 99.094 C 260.707 98.601,260.368 98.040,260.226 97.405 C 260.107 96.876,259.808 96.318,259.551 96.146 C 258.830 95.664,258.882 93.367,259.629 92.718 C 259.975 92.417,260.222 91.892,260.318 91.256 C 260.413 90.620,260.581 90.264,260.786 90.264 C 260.962 90.264,261.335 89.789,261.616 89.208 C 261.998 88.419,262.312 88.091,262.855 87.913 C 263.255 87.783,263.741 87.448,263.937 87.169 C 264.132 86.891,264.424 86.663,264.586 86.663 C 264.748 86.663,265.169 86.435,265.523 86.156 C 266.826 85.129,277.704 85.105,278.509 86.128 M162.926 91.093 C 162.715 91.148,162.482 91.385,162.408 91.618 C 162.334 91.851,162.094 92.099,161.876 92.168 C 161.263 92.363,159.905 93.693,159.718 94.283 C 159.625 94.575,159.307 95.171,159.010 95.609 C 158.480 96.389,158.469 96.504,158.469 101.314 L 158.469 106.223 159.032 106.831 C 159.342 107.164,159.595 107.630,159.595 107.866 C 159.595 108.511,161.708 110.523,162.385 110.523 C 162.711 110.523,163.094 110.735,163.301 111.030 C 163.873 111.847,166.652 111.776,167.673 110.917 C 168.077 110.577,168.548 110.298,168.718 110.298 C 169.127 110.298,170.099 109.315,170.292 108.706 C 170.376 108.442,170.731 107.958,171.082 107.630 L 171.719 107.034 171.769 103.770 C 171.884 96.341,171.833 95.700,171.075 94.992 C 170.612 94.559,170.400 94.146,170.400 93.679 C 170.400 92.829,169.882 92.290,169.066 92.290 C 168.678 92.290,168.172 92.034,167.734 91.615 C 167.039 90.951,164.509 90.676,162.926 91.093 M235.133 92.588 C 233.662 94.045,233.427 94.386,233.427 95.058 C 233.427 95.593,233.283 95.934,232.965 96.146 C 232.301 96.590,232.087 97.843,232.087 101.294 C 232.087 104.746,232.301 105.999,232.965 106.443 C 233.288 106.659,233.428 106.997,233.431 107.568 C 233.435 108.516,233.576 108.781,234.271 109.147 C 234.550 109.294,234.778 109.559,234.778 109.736 C 234.778 110.149,235.480 110.523,236.257 110.523 C 236.616 110.523,237.078 110.753,237.386 111.086 C 238.216 111.982,240.542 111.916,241.383 110.974 C 241.826 110.476,242.184 110.298,242.743 110.298 C 243.598 110.298,243.897 110.033,244.136 109.059 C 244.227 108.688,244.539 108.162,244.830 107.889 C 245.278 107.468,245.357 107.174,245.357 105.929 C 245.357 104.642,245.428 104.398,245.941 103.923 C 246.764 103.160,246.708 98.762,245.864 97.865 C 245.496 97.473,245.357 97.053,245.357 96.328 C 245.357 95.759,245.168 94.990,244.919 94.541 C 244.678 94.108,244.322 93.424,244.128 93.022 C 243.934 92.620,243.605 92.290,243.397 92.290 C 243.188 92.290,242.616 92.012,242.126 91.671 C 241.328 91.118,240.999 91.044,239.036 90.976 L 236.840 90.899 235.133 92.588 M167.513 92.178 C 167.798 92.539,168.182 92.741,168.588 92.741 C 169.312 92.741,169.597 93.026,169.822 93.979 C 169.910 94.350,170.231 94.917,170.537 95.238 L 171.092 95.822 171.088 101.390 L 171.084 106.958 170.460 107.571 C 170.117 107.908,169.579 108.494,169.264 108.873 C 168.949 109.253,168.347 109.742,167.925 109.960 C 167.503 110.178,167.025 110.489,166.863 110.652 C 166.230 111.284,164.574 111.307,163.913 110.693 C 163.581 110.384,163.012 110.061,162.649 109.975 C 161.798 109.774,160.344 108.319,160.144 107.469 C 160.059 107.106,159.743 106.572,159.442 106.282 L 158.894 105.755 158.963 101.178 C 159.028 96.884,159.061 96.570,159.509 96.078 C 159.771 95.790,160.050 95.301,160.128 94.992 C 160.279 94.393,161.704 92.741,162.069 92.741 C 162.188 92.741,162.452 92.487,162.654 92.178 C 163.002 91.647,163.137 91.615,165.047 91.615 C 166.938 91.615,167.100 91.652,167.513 92.178 M241.407 92.053 C 241.624 92.293,242.120 92.560,242.507 92.645 C 243.256 92.809,243.763 93.302,243.774 93.879 C 243.778 94.071,244.035 94.572,244.344 94.992 C 244.763 95.559,244.907 96.035,244.907 96.851 C 244.907 97.938,245.195 98.782,245.672 99.091 C 246.174 99.417,245.978 102.695,245.414 103.412 C 245.012 103.923,244.907 104.345,244.907 105.456 C 244.907 106.692,244.831 106.934,244.256 107.537 C 243.897 107.912,243.537 108.524,243.455 108.897 C 243.329 109.470,243.152 109.615,242.319 109.825 C 241.775 109.961,241.196 110.266,241.032 110.501 C 240.441 111.343,238.380 111.369,237.644 110.543 C 237.213 110.059,236.820 109.848,236.352 109.848 C 235.336 109.848,233.877 108.356,233.877 107.316 C 233.877 106.844,233.676 106.276,233.371 105.888 C 232.889 105.276,232.864 105.050,232.864 101.294 C 232.864 97.539,232.889 97.312,233.371 96.700 C 233.689 96.296,233.877 95.746,233.877 95.224 C 233.877 94.577,233.997 94.328,234.415 94.104 C 234.711 93.946,235.083 93.574,235.241 93.279 C 235.400 92.983,235.614 92.741,235.718 92.741 C 235.821 92.741,236.126 92.487,236.395 92.178 C 237.064 91.409,240.741 91.317,241.407 92.053 " stroke="none" fill="#74048c" fill-rule="evenodd"></path></g></svg>